<?xml version="1.0" encoding="UTF-8"?>
<svg width="700pt" height="700pt" version="1.1" viewBox="0 0 700 700" xmlns="http://www.w3.org/2000/svg" xmlns:xlink="http://www.w3.org/1999/xlink">
 <defs>
  <symbol id="u" overflow="visible">
   <path d="m18.766-1.125c-0.96875 0.5-1.9805 0.875-3.0312 1.125-1.043 0.25781-2.1367 0.39062-3.2812 0.39062-3.3984 0-6.0898-0.94531-8.0781-2.8438-1.9922-1.9062-2.9844-4.4844-2.9844-7.7344 0-3.2578 0.99219-5.8359 2.9844-7.7344 1.9883-1.9062 4.6797-2.8594 8.0781-2.8594 1.1445 0 2.2383 0.13281 3.2812 0.39062 1.0508 0.25 2.0625 0.625 3.0312 1.125v4.2188c-0.98047-0.65625-1.9453-1.1406-2.8906-1.4531-0.94922-0.3125-1.9492-0.46875-3-0.46875-1.875 0-3.3516 0.60547-4.4219 1.8125-1.0742 1.1992-1.6094 2.8555-1.6094 4.9688 0 2.1055 0.53516 3.7617 1.6094 4.9688 1.0703 1.1992 2.5469 1.7969 4.4219 1.7969 1.0508 0 2.0508-0.14844 3-0.45312 0.94531-0.3125 1.9102-0.80078 2.8906-1.4688z"/>
  </symbol>
  <symbol id="d" overflow="visible">
   <path d="m13.734-11.141c-0.4375-0.19531-0.87109-0.34375-1.2969-0.4375-0.41797-0.10156-0.83984-0.15625-1.2656-0.15625-1.2617 0-2.2305 0.40625-2.9062 1.2188-0.67969 0.80469-1.0156 1.9531-1.0156 3.4531v7.0625h-4.8906v-15.312h4.8906v2.5156c0.625-1 1.3438-1.7266 2.1562-2.1875 0.82031-0.46875 1.8008-0.70312 2.9375-0.70312 0.16406 0 0.34375 0.011719 0.53125 0.03125 0.19531 0.011719 0.47656 0.039062 0.84375 0.078125z"/>
  </symbol>
  <symbol id="a" overflow="visible">
   <path d="m17.641-7.7031v1.4062h-11.453c0.125 1.1484 0.53906 2.0078 1.25 2.5781 0.70703 0.57422 1.7031 0.85938 2.9844 0.85938 1.0312 0 2.082-0.14844 3.1562-0.45312 1.082-0.3125 2.1914-0.77344 3.3281-1.3906v3.7656c-1.1562 0.4375-2.3125 0.76562-3.4688 0.98438-1.1562 0.22656-2.3125 0.34375-3.4688 0.34375-2.7734 0-4.9297-0.70312-6.4688-2.1094-1.5312-1.4062-2.2969-3.3789-2.2969-5.9219 0-2.5 0.75391-4.4609 2.2656-5.8906 1.5078-1.4375 3.582-2.1562 6.2188-2.1562 2.4062 0 4.332 0.73047 5.7812 2.1875 1.4453 1.4492 2.1719 3.3828 2.1719 5.7969zm-5.0312-1.625c0-0.92578-0.27344-1.6719-0.8125-2.2344-0.54297-0.57031-1.25-0.85938-2.125-0.85938-0.94922 0-1.7188 0.26562-2.3125 0.79688s-0.96484 1.2969-1.1094 2.2969z"/>
  </symbol>
  <symbol id="f" overflow="visible">
   <path d="m9.2188-6.8906c-1.0234 0-1.793 0.17188-2.3125 0.51562-0.51172 0.34375-0.76562 0.85547-0.76562 1.5312 0 0.625 0.20703 1.1172 0.625 1.4688 0.41406 0.34375 0.98828 0.51562 1.7188 0.51562 0.92578 0 1.7031-0.32812 2.3281-0.98438 0.63281-0.66406 0.95312-1.4922 0.95312-2.4844v-0.5625zm7.4688-1.8438v8.7344h-4.9219v-2.2656c-0.65625 0.92969-1.3984 1.6055-2.2188 2.0312-0.82422 0.41406-1.8242 0.625-3 0.625-1.5859 0-2.8711-0.45703-3.8594-1.375-0.99219-0.92578-1.4844-2.1289-1.4844-3.6094 0-1.7891 0.61328-3.1016 1.8438-3.9375 1.2383-0.84375 3.1797-1.2656 5.8281-1.2656h2.8906v-0.39062c0-0.76953-0.30859-1.332-0.92188-1.6875-0.61719-0.36328-1.5703-0.54688-2.8594-0.54688-1.0547 0-2.0312 0.10547-2.9375 0.3125-0.89844 0.21094-1.7305 0.52344-2.5 0.9375v-3.7344c1.0391-0.25 2.0859-0.44141 3.1406-0.57812 1.0625-0.13281 2.125-0.20312 3.1875-0.20312 2.7578 0 4.75 0.54688 5.9688 1.6406 1.2266 1.0859 1.8438 2.8555 1.8438 5.3125z"/>
  </symbol>
  <symbol id="c" overflow="visible">
   <path d="m7.7031-19.656v4.3438h5.0469v3.5h-5.0469v6.5c0 0.71094 0.14062 1.1875 0.42188 1.4375s0.83594 0.375 1.6719 0.375h2.5156v3.5h-4.1875c-1.9375 0-3.3125-0.39844-4.125-1.2031-0.80469-0.8125-1.2031-2.1797-1.2031-4.1094v-6.5h-2.4219v-3.5h2.4219v-4.3438z"/>
  </symbol>
  <symbol id="e" overflow="visible">
   <path d="m12.766-13.078v-8.2031h4.9219v21.281h-4.9219v-2.2188c-0.66797 0.90625-1.4062 1.5703-2.2188 1.9844s-1.7578 0.625-2.8281 0.625c-1.8867 0-3.4336-0.75-4.6406-2.25-1.2109-1.5-1.8125-3.4258-1.8125-5.7812 0-2.3633 0.60156-4.2969 1.8125-5.7969 1.207-1.5 2.7539-2.25 4.6406-2.25 1.0625 0 2 0.21484 2.8125 0.64062 0.82031 0.42969 1.5664 1.0859 2.2344 1.9688zm-3.2188 9.9219c1.0391 0 1.8359-0.37891 2.3906-1.1406 0.55078-0.76953 0.82812-1.8828 0.82812-3.3438 0-1.457-0.27734-2.5664-0.82812-3.3281-0.55469-0.76953-1.3516-1.1562-2.3906-1.1562-1.043 0-1.8398 0.38672-2.3906 1.1562-0.55469 0.76172-0.82812 1.8711-0.82812 3.3281 0 1.4609 0.27344 2.5742 0.82812 3.3438 0.55078 0.76172 1.3477 1.1406 2.3906 1.1406z"/>
  </symbol>
  <symbol id="j" overflow="visible">
   <path d="m10.5-3.1562c1.0508 0 1.8516-0.37891 2.4062-1.1406 0.55078-0.76953 0.82812-1.8828 0.82812-3.3438 0-1.457-0.27734-2.5664-0.82812-3.3281-0.55469-0.76953-1.3555-1.1562-2.4062-1.1562-1.0547 0-1.8594 0.38672-2.4219 1.1562-0.55469 0.77344-0.82812 1.8828-0.82812 3.3281 0 1.4492 0.27344 2.5586 0.82812 3.3281 0.5625 0.77344 1.3672 1.1562 2.4219 1.1562zm-3.25-9.9219c0.67578-0.88281 1.4219-1.5391 2.2344-1.9688 0.82031-0.42578 1.7656-0.64062 2.8281-0.64062 1.8945 0 3.4453 0.75 4.6562 2.25 1.207 1.5 1.8125 3.4336 1.8125 5.7969 0 2.3555-0.60547 4.2812-1.8125 5.7812-1.2109 1.5-2.7617 2.25-4.6562 2.25-1.0625 0-2.0078-0.21094-2.8281-0.625-0.8125-0.42578-1.5586-1.0859-2.2344-1.9844v2.2188h-4.8906v-21.281h4.8906z"/>
  </symbol>
  <symbol id="i" overflow="visible">
   <path d="m0.34375-15.312h4.8906l4.125 10.391 3.5-10.391h4.8906l-6.4375 16.766c-0.64844 1.6953-1.4023 2.8828-2.2656 3.5625-0.86719 0.6875-2 1.0312-3.4062 1.0312h-2.8438v-3.2188h1.5312c0.83203 0 1.4375-0.13672 1.8125-0.40625 0.38281-0.26172 0.67969-0.73047 0.89062-1.4062l0.14062-0.42188z"/>
  </symbol>
  <symbol id="h" overflow="visible">
   <path d="m2.5781-20.406h6.6875l4.6562 10.922 4.6719-10.922h6.6875v20.406h-4.9844v-14.938l-4.7031 11.016h-3.3281l-4.7031-11.016v14.938h-4.9844z"/>
  </symbol>
  <symbol id="t" overflow="visible">
   <path d="m2.3594-15.312h4.8906v15.312h-4.8906zm0-5.9688h4.8906v4h-4.8906z"/>
  </symbol>
  <symbol id="s" overflow="visible">
   <path d="m14.312-14.828v3.7188c-1.043-0.4375-2.0547-0.76562-3.0312-0.98438-0.98047-0.21875-1.9023-0.32812-2.7656-0.32812-0.92969 0-1.6211 0.11719-2.0781 0.34375-0.44922 0.23047-0.67188 0.58984-0.67188 1.0781 0 0.38672 0.17188 0.68359 0.51562 0.89062 0.34375 0.21094 0.95703 0.36719 1.8438 0.46875l0.85938 0.125c2.5078 0.32422 4.1953 0.85156 5.0625 1.5781 0.86328 0.73047 1.2969 1.8711 1.2969 3.4219 0 1.6367-0.60547 2.8672-1.8125 3.6875-1.1992 0.8125-2.9922 1.2188-5.375 1.2188-1.0234 0-2.0742-0.078125-3.1562-0.23438-1.0742-0.15625-2.1797-0.39453-3.3125-0.71875v-3.7188c0.96875 0.48047 1.9609 0.83984 2.9844 1.0781 1.0312 0.23047 2.0781 0.34375 3.1406 0.34375 0.95703 0 1.6758-0.12891 2.1562-0.39062 0.47656-0.26953 0.71875-0.66406 0.71875-1.1875 0-0.4375-0.16797-0.75781-0.5-0.96875-0.33594-0.21875-0.99609-0.38281-1.9844-0.5l-0.85938-0.10938c-2.1797-0.26953-3.7031-0.77344-4.5781-1.5156-0.875-0.73828-1.3125-1.8594-1.3125-3.3594 0-1.625 0.55078-2.8281 1.6562-3.6094 1.1133-0.78906 2.8203-1.1875 5.125-1.1875 0.89453 0 1.8359 0.074219 2.8281 0.21875 1 0.13672 2.082 0.35156 3.25 0.64062z"/>
  </symbol>
  <symbol id="b" overflow="visible">
   <path d="m9.6406-12.188c-1.0859 0-1.9141 0.39062-2.4844 1.1719-0.57422 0.78125-0.85938 1.9062-0.85938 3.375s0.28516 2.5938 0.85938 3.375c0.57031 0.77344 1.3984 1.1562 2.4844 1.1562 1.0625 0 1.875-0.38281 2.4375-1.1562 0.57031-0.78125 0.85938-1.9062 0.85938-3.375s-0.28906-2.5938-0.85938-3.375c-0.5625-0.78125-1.375-1.1719-2.4375-1.1719zm0-3.5c2.6328 0 4.6914 0.71484 6.1719 2.1406 1.4766 1.418 2.2188 3.3867 2.2188 5.9062 0 2.5117-0.74219 4.4805-2.2188 5.9062-1.4805 1.418-3.5391 2.125-6.1719 2.125-2.6484 0-4.7148-0.70703-6.2031-2.125-1.4922-1.4258-2.2344-3.3945-2.2344-5.9062 0-2.5195 0.74219-4.4883 2.2344-5.9062 1.4883-1.4258 3.5547-2.1406 6.2031-2.1406z"/>
  </symbol>
  <symbol id="g" overflow="visible">
   <path d="m17.75-9.3281v9.3281h-4.9219v-7.1406c0-1.3203-0.03125-2.2344-0.09375-2.7344s-0.16797-0.86719-0.3125-1.1094c-0.1875-0.3125-0.44922-0.55469-0.78125-0.73438-0.32422-0.17578-0.69531-0.26562-1.1094-0.26562-1.0234 0-1.8242 0.39844-2.4062 1.1875-0.58594 0.78125-0.875 1.8711-0.875 3.2656v7.5312h-4.8906v-15.312h4.8906v2.2344c0.73828-0.88281 1.5195-1.5391 2.3438-1.9688 0.83203-0.42578 1.75-0.64062 2.75-0.64062 1.7695 0 3.1133 0.54688 4.0312 1.6406 0.91406 1.0859 1.375 2.6562 1.375 4.7188z"/>
  </symbol>
  <symbol id="r" overflow="visible">
   <path d="m12.422-21.281v3.2188h-2.7031c-0.6875 0-1.1719 0.125-1.4531 0.375-0.27344 0.25-0.40625 0.6875-0.40625 1.3125v1.0625h4.1875v3.5h-4.1875v11.812h-4.8906v-11.812h-2.4375v-3.5h2.4375v-1.0625c0-1.6641 0.46094-2.8984 1.3906-3.7031 0.92578-0.80078 2.3672-1.2031 4.3281-1.2031z"/>
  </symbol>
  <symbol id="q" overflow="visible">
   <path d="m16.547-12.766c0.61328-0.94531 1.3477-1.6719 2.2031-2.1719 0.85156-0.5 1.7891-0.75 2.8125-0.75 1.7578 0 3.0977 0.54688 4.0156 1.6406 0.92578 1.0859 1.3906 2.6562 1.3906 4.7188v9.3281h-4.9219v-7.9844-0.35938c0.007813-0.13281 0.015625-0.32031 0.015625-0.5625 0-1.082-0.16406-1.8633-0.48438-2.3438-0.3125-0.48828-0.82422-0.73438-1.5312-0.73438-0.92969 0-1.6484 0.38672-2.1562 1.1562-0.51172 0.76172-0.77344 1.8672-0.78125 3.3125v7.5156h-4.9219v-7.9844c0-1.6953-0.14844-2.7852-0.4375-3.2656-0.29297-0.48828-0.8125-0.73438-1.5625-0.73438-0.9375 0-1.6641 0.38672-2.1719 1.1562-0.51172 0.76172-0.76562 1.8594-0.76562 3.2969v7.5312h-4.9219v-15.312h4.9219v2.2344c0.60156-0.86328 1.2891-1.5156 2.0625-1.9531 0.78125-0.4375 1.6406-0.65625 2.5781-0.65625 1.0625 0 2 0.25781 2.8125 0.76562 0.8125 0.51172 1.4258 1.2305 1.8438 2.1562z"/>
  </symbol>
  <symbol id="p" overflow="visible">
   <path d="m17.75-9.3281v9.3281h-4.9219v-7.1094c0-1.3438-0.03125-2.2656-0.09375-2.7656s-0.16797-0.86719-0.3125-1.1094c-0.1875-0.3125-0.44922-0.55469-0.78125-0.73438-0.32422-0.17578-0.69531-0.26562-1.1094-0.26562-1.0234 0-1.8242 0.39844-2.4062 1.1875-0.58594 0.78125-0.875 1.8711-0.875 3.2656v7.5312h-4.8906v-21.281h4.8906v8.2031c0.73828-0.88281 1.5195-1.5391 2.3438-1.9688 0.83203-0.42578 1.75-0.64062 2.75-0.64062 1.7695 0 3.1133 0.54688 4.0312 1.6406 0.91406 1.0859 1.375 2.6562 1.375 4.7188z"/>
  </symbol>
  <symbol id="o" overflow="visible">
   <path d="m2.5781-20.406h5.875l7.4219 14v-14h4.9844v20.406h-5.875l-7.4219-14v14h-4.9844z"/>
  </symbol>
  <symbol id="n" overflow="visible">
   <path d="m2.1875-5.9688v-9.3438h4.9219v1.5312c0 0.83594-0.007813 1.875-0.015625 3.125-0.011719 1.25-0.015625 2.0859-0.015625 2.5 0 1.2422 0.03125 2.1328 0.09375 2.6719 0.070313 0.54297 0.17969 0.93359 0.32812 1.1719 0.20703 0.32422 0.47266 0.57422 0.79688 0.75 0.32031 0.16797 0.69141 0.25 1.1094 0.25 1.0195 0 1.8203-0.39062 2.4062-1.1719 0.58203-0.78125 0.875-1.8672 0.875-3.2656v-7.5625h4.8906v15.312h-4.8906v-2.2188c-0.74219 0.89844-1.5234 1.5586-2.3438 1.9844-0.82422 0.41406-1.7344 0.625-2.7344 0.625-1.7617 0-3.1055-0.53906-4.0312-1.625-0.92969-1.082-1.3906-2.6602-1.3906-4.7344z"/>
  </symbol>
  <symbol id="m" overflow="visible">
   <path d="m2.5781-20.406h8.7344c2.5938 0 4.582 0.57812 5.9688 1.7344 1.3945 1.1484 2.0938 2.7891 2.0938 4.9219 0 2.1367-0.69922 3.7812-2.0938 4.9375-1.3867 1.1562-3.375 1.7344-5.9688 1.7344h-3.4844v7.0781h-5.25zm5.25 3.8125v5.7031h2.9219c1.0195 0 1.8047-0.25 2.3594-0.75 0.5625-0.5 0.84375-1.2031 0.84375-2.1094 0-0.91406-0.28125-1.6172-0.84375-2.1094-0.55469-0.48828-1.3398-0.73438-2.3594-0.73438z"/>
  </symbol>
  <symbol id="l" overflow="visible">
   <path d="m2.3594-15.312h4.8906v15.031c0 2.0508-0.49609 3.6172-1.4844 4.7031-0.98047 1.082-2.4062 1.625-4.2812 1.625h-2.4219v-3.2188h0.85938c0.92578 0 1.5625-0.21094 1.9062-0.625 0.35156-0.41797 0.53125-1.2461 0.53125-2.4844zm0-5.9688h4.8906v4h-4.8906z"/>
  </symbol>
  <symbol id="k" overflow="visible">
   <path d="m14.719-14.828v3.9844c-0.65625-0.45703-1.3242-0.79688-2-1.0156-0.66797-0.21875-1.3594-0.32812-2.0781-0.32812-1.3672 0-2.4336 0.40234-3.2031 1.2031-0.76172 0.79297-1.1406 1.9062-1.1406 3.3438 0 1.4297 0.37891 2.543 1.1406 3.3438 0.76953 0.79297 1.8359 1.1875 3.2031 1.1875 0.75781 0 1.4844-0.10938 2.1719-0.32812 0.6875-0.22656 1.3203-0.56641 1.9062-1.0156v4c-0.76172 0.28125-1.5391 0.48828-2.3281 0.625-0.78125 0.14453-1.5742 0.21875-2.375 0.21875-2.7617 0-4.9219-0.70703-6.4844-2.125-1.5547-1.4141-2.3281-3.3828-2.3281-5.9062 0-2.5312 0.77344-4.5039 2.3281-5.9219 1.5625-1.4141 3.7227-2.125 6.4844-2.125 0.80078 0 1.5938 0.074219 2.375 0.21875 0.78125 0.13672 1.5547 0.35156 2.3281 0.64062z"/>
  </symbol>
 </defs>
 <g>
  <path d="m315.89 410.82c-2.4648-0.375-4.9297-0.82031-7.3906-1.3438-43.086-9.0586-80.055-36.5-101.19-75.121-21.137-38.617-24.332-84.551-8.7383-125.72 15.59-41.172 48.41-73.469 89.824-88.398-44.352 15.352-79.449 49.832-95.582 93.906-16.137 44.074-11.594 93.066 12.367 133.42 23.961 40.359 64.797 67.801 111.21 74.738 2.5195 0.39062 5.0391 0.72656 7.6172 0.95312 15.062-1.1797 3.5859-9.1875-8.1211-12.434z"/>
  <path d="m281.01 377.11c-1.0078 2.9102-7 11.199-11.199 10.641h-0.28125v-0.003906c1.8125-4.082 3.1289-8.3672 3.9219-12.766 0.57031-2.668 0.71875-5.4062 0.44531-8.1211-0.36328-2.7422-1.4648-5.3359-3.1914-7.5039 0.51562 2.5273 0.81641 5.0938 0.89844 7.6719v7.6719c-0.24219 2.582-0.65625 5.1445-1.2344 7.6719-0.33594 1.7344-0.78516 3.4727-1.2891 5.1523-0.24609-0.054687-0.47656-0.16797-0.67188-0.33594-3.7031-2.7305-6.2305-6.7617-7.0703-11.285-0.84375-4.5234 0.0625-9.1953 2.5352-13.074 1.1992-3.2617 2.1367-6.6133 2.8008-10.023 0.95312-2.8555 4.9297 1.5117 5.9375 2.5195 1.9023 1.8203 3.5938 3.8477 5.0391 6.0469 3.4258 4.4766 4.6602 10.254 3.3594 15.738z"/>
  <path d="m249.2 415.57c2.4648-1.8477 8.1758-10.191 6.4414-14.055-3.2891 3.0039-6.918 5.6172-10.809 7.7852-2.3477 1.3984-4.8984 2.418-7.5586 3.0234-2.7109 0.54297-5.5156 0.35156-8.1211-0.55859 2.5391-0.28906 5.0508-0.79688 7.5039-1.5117 2.4648-0.67578 4.8945-1.4805 7.2812-2.4102 2.3711-1.0391 4.6758-2.2344 6.8867-3.582l4.4258-2.9102-0.5625-0.5625c-3.7734-2.6016-8.3906-3.6836-12.926-3.0312-4.5391 0.65625-8.6602 2.9961-11.547 6.5586-2.7617 2.293-5.7227 4.3359-8.8477 6.1055-2.3516 1.8477 3.0781 4.1445 4.3125 4.8164v-0.003907c2.3438 1.1797 4.8008 2.1172 7.3359 2.8008 5.4883 1.7188 11.457 0.80859 16.184-2.4648z"/>
  <path d="m213.7 389.76c2.9102-1.0625 10.695-7.5039 10.078-11.648h0.003906c-3.9844 1.9883-8.1953 3.4727-12.547 4.4219-2.625 0.69922-5.3477 0.98438-8.0625 0.83984-2.7656-0.25391-5.4141-1.2383-7.6719-2.8555 2.5352 0.4375 5.1016 0.66406 7.6719 0.67188h7.6172c2.5703-0.35547 5.1133-0.87891 7.6133-1.5664 1.7344-0.44922 3.4141-0.95312 5.0977-1.5664v-0.003906c-0.097656-0.22266-0.23047-0.42969-0.39062-0.61328-2.7695-3.6445-6.8125-6.1055-11.32-6.8984-4.5039-0.78906-9.1445 0.15625-12.984 2.6406-3.2891 1.4297-6.6992 2.5547-10.191 3.3594-2.8008 1.1211 1.793 4.8711 2.8008 5.8789l-0.003906 0.003906c1.918 1.7852 4.0195 3.3633 6.2734 4.7031 4.6484 3.3008 10.559 4.2695 16.016 2.6328z"/>
  <path d="m250.04 359.18c-2.2969 2.0703-11.535 6.1602-15.008 3.6953 3.5977-2.6445 6.8555-5.7305 9.6875-9.1836 1.832-2.0156 3.3086-4.3242 4.3711-6.832 1.0625-2.5469 1.3906-5.3398 0.94922-8.0625-0.77344 2.4453-1.75 4.8242-2.9102 7.1094-1.1758 2.1836-2.2969 4.4805-3.6953 6.6641-1.6719 2.0703-3.4883 4.0156-5.4336 5.8242-1.1953 1.3438-2.4258 2.6328-3.6953 3.8633v0.003906c-0.15234-0.21484-0.28125-0.4375-0.39453-0.67188-1.8516-4.1914-2.0508-8.9297-0.55469-13.262 1.4961-4.332 4.5742-7.9375 8.6211-10.094 2.7422-2.3047 5.2891-4.832 7.6172-7.5586 2.2383-1.9609 3.5273 3.8086 3.9219 5.1523h-0.003906c0.71094 2.5391 1.1445 5.1484 1.2891 7.7852 0.86328 5.6406-0.88672 11.371-4.7617 15.566z"/>
  <path d="m191.8 359.13c2.7422-0.50391 10.754-4.9844 10.922-8.793v-0.28125h-0.003906c-3.8984 1.1367-7.9219 1.793-11.984 1.9609-2.4609 0.21484-4.9414 0.003906-7.3359-0.61719-2.4453-0.60547-4.6602-1.9102-6.3828-3.75 2.207 0.78906 4.4727 1.4062 6.7773 1.8477 2.2383 0.33594 4.5352 0.78516 6.832 0.95312 2.3672 0.16797 4.7422 0.16797 7.1094 0 1.5664 0 3.1914-0.33594 4.8164-0.55859v-0.003906c-0.066406-0.23047-0.16016-0.45703-0.27734-0.67188-2.0117-3.6484-5.332-6.4023-9.2891-7.6992-3.9609-1.3008-8.2656-1.0508-12.047 0.69922-3.168 0.72266-6.3906 1.1719-9.6328 1.3438-2.6875 0.55859 0.78516 4.6484 1.5117 5.6016 1.4141 1.918 3.0508 3.668 4.8711 5.207 3.707 3.6992 8.9219 5.4609 14.113 4.7617z"/>
  <path d="m230.72 332.7c-1.793 2.1836-9.5195 7.1133-12.938 5.6016h0.003906c2.8164-2.9258 5.2969-6.1562 7.3906-9.6328 1.3438-2.0586 2.3281-4.332 2.9141-6.7188 0.60547-2.4414 0.51172-5.0039-0.28125-7.3945-0.35156 2.3203-0.89453 4.6055-1.625 6.832-0.67969 2.2109-1.4844 4.3789-2.4062 6.4961-1.0273 2.125-2.1875 4.1836-3.4727 6.1602-0.89453 1.3438-1.793 2.6875-2.8008 3.9766l-0.44922-0.55859c-2.2734-3.5469-3.1289-7.8164-2.4062-11.965 0.72656-4.1484 2.9844-7.875 6.3281-10.438 2.0742-2.457 3.9453-5.0781 5.5977-7.8398 1.7344-2.1289 3.6953 2.8555 4.2578 4.0312 1.0664 2.1523 1.8555 4.4297 2.3516 6.7773 1.5078 5.0078 0.59766 10.434-2.4648 14.672z"/>
  <path d="m174.55 321.83c2.5742 0.33594 10.922-1.2891 12.152-4.6484-3.7891-0.125-7.5508-0.70703-11.199-1.7344-2.2344-0.53516-4.3711-1.4258-6.3281-2.6328-1.9609-1.2617-3.5312-3.0469-4.5352-5.1523 1.7539 1.3633 3.6289 2.5625 5.5977 3.582 1.8477 0.95312 3.7539 2.0156 5.6016 2.8555v0.003907c2.0547 0.75 4.1484 1.3867 6.2734 1.9023 1.457 0.33594 2.9688 0.61719 4.4258 0.83984h-0.003906c0.027344-0.20312 0.027344-0.41016 0-0.61719-0.72266-3.8008-2.8555-7.1875-5.9727-9.4805-3.1133-2.2969-6.9805-3.3281-10.828-2.8945-3.0039-0.26562-5.9844-0.79297-8.9023-1.5664-2.5195 0-0.61719 4.3125-0.28125 5.6016v-0.003906c0.79688 2.0117 1.8125 3.9258 3.0234 5.7148 2.2422 4.25 6.2695 7.2734 10.977 8.2305z"/>
  <path d="m213.41 305.26c-2.3516 1.0625-10.809 2.1289-12.992-0.67187h0.003906c3.543-1.2383 6.9141-2.9336 10.023-5.043 1.9648-1.1797 3.707-2.6953 5.1523-4.4805 1.4727-1.7969 2.4219-3.9688 2.7422-6.2695-1.2422 1.7734-2.6094 3.457-4.0859 5.0391-1.4492 1.5781-2.9805 3.0742-4.5938 4.4805-1.7969 1.3516-3.6641 2.6055-5.6016 3.75-1.2891 0.72656-2.5742 1.5117-3.9219 2.1836v-0.61719l0.003906 0.003906c-0.48438-3.8125 0.49219-7.6641 2.7383-10.785 2.2461-3.1172 5.5898-5.2656 9.3555-6.0156 2.7734-1.2188 5.4492-2.6406 8.0078-4.2578 2.2969-1.0625 1.9023 3.8633 1.9609 5.0977-0.13281 2.082-0.47266 4.1445-1.0078 6.1602-0.71484 4.7969-3.582 9-7.7852 11.426z"/>
  <path d="m206.98 274.01c-2.3516 1.0625-10.809 2.1289-13.047-0.67187 3.543-1.2383 6.9141-2.9297 10.023-5.0391 1.9531-1.1992 3.6953-2.7109 5.1523-4.4805 1.4219-1.7969 2.332-3.9453 2.6289-6.2148-1.2227 1.7734-2.5703 3.457-4.0312 5.0391-1.457 1.457-2.9688 3.0781-4.5938 4.4805h0.003906c-1.7969 1.3516-3.668 2.6055-5.6016 3.75-1.2891 0.72656-2.5742 1.5117-3.9219 2.1836h0.003906c-0.050781-0.19922-0.050781-0.41406 0-0.61328-0.48828-3.8125 0.49219-7.668 2.7383-10.785 2.2422-3.1172 5.5859-5.2656 9.3555-6.0156 2.7578-1.207 5.418-2.6289 7.9531-4.2578 2.2969-1.0625 1.9609 3.8633 1.9609 5.0977 0.007813 2.2031-0.23437 4.4023-0.73047 6.5508-0.85938 4.6562-3.7578 8.6797-7.8945 10.977z"/>
  <path d="m208.6 237.83c-2.5742 0.33594-11.199-1.1758-12.207-4.5352h-0.003906c3.793-0.14062 7.5547-0.74219 11.203-1.793 2.2227-0.54688 4.3398-1.4531 6.2695-2.6875 1.9531-1.3008 3.5195-3.0977 4.5352-5.207-1.7539 1.3555-3.6289 2.5547-5.5977 3.582-1.8164 1.0508-3.6875 2.0039-5.6016 2.8555-2.0352 0.82422-4.1328 1.4766-6.2695 1.9609-1.457 0.39063-2.9102 0.67188-4.3672 0.95313h-0.003906c-0.027344-0.22266-0.027344-0.44922 0-0.67188 0.66406-3.8398 2.7773-7.2812 5.9023-9.6055 3.1289-2.3242 7.0312-3.3555 10.898-2.8828 3.0156-0.27734 5.9961-0.83984 8.9062-1.6797 2.5195 0 0.67188 4.3125 0.33594 5.6016v-0.003906c-0.84766 2.0703-1.918 4.043-3.1953 5.8828-2.1758 4.2305-6.1484 7.2539-10.805 8.2305z"/>
  <path d="m213.02 210.73c-2.4062-1.0078-8.793-6.6641-8.1758-10.137v0.003906c3.2891 1.8047 6.7852 3.1953 10.418 4.1406 2.1953 0.66406 4.4805 0.96484 6.7734 0.89844 2.332-0.09375 4.5859-0.85156 6.4961-2.1836-2.1328 0.27344-4.2852 0.38672-6.4375 0.33594-2.1797-0.18359-4.3477-0.48438-6.4961-0.89844-2.1367-0.29688-4.25-0.72656-6.3281-1.2852l-4.1992-1.457h-0.003907c0.058594-0.21484 0.17578-0.41016 0.33594-0.55859 2.5234-2.9219 6.0586-4.7773 9.8906-5.1953 3.8359-0.41406 7.6875 0.64062 10.773 2.9531 2.7227 1.293 5.5508 2.3398 8.457 3.1367 2.2969 1.0078-1.625 4.0312-2.5195 4.8711-1.707 1.4922-3.5859 2.7695-5.6016 3.8086-3.9961 2.5117-8.9141 3.0859-13.383 1.5664z"/>
  <path d="m167.95 286.72c2.5742 0 11.199-1.3438 12.152-4.6484-3.7891-0.10547-7.5508-0.66797-11.203-1.6797-2.2344-0.53516-4.3711-1.4219-6.3281-2.6289-1.9492-1.3008-3.5156-3.0977-4.5352-5.2109 1.7695 1.3438 3.6406 2.543 5.6016 3.5859 1.8164 1.0273 3.6875 1.9609 5.5977 2.8008 2.0391 0.80078 4.1367 1.4375 6.2734 1.9023 1.457 0.37891 2.9336 0.67969 4.4258 0.89453 0.027343-0.20312 0.027343-0.41016 0-0.61328-0.71484-3.8086-2.8438-7.2031-5.9609-9.5-3.1211-2.2969-6.9922-3.3242-10.84-2.8789-3.0039-0.29297-5.9805-0.81641-8.9062-1.5664-2.5195-0.33594-0.61719 4.3125-0.28125 5.6016h0.003906c0.71875 2.0977 1.6367 4.125 2.7422 6.0469 2.3867 4.1797 6.5156 7.0742 11.258 7.8945z"/>
  <path d="m168.17 253.62c2.5742 0.61719 11.199 0 12.711-3.1914-3.75-0.5625-7.4141-1.5781-10.918-3.0273-2.1562-0.78516-4.1758-1.9023-5.9922-3.3008-1.7812-1.4883-3.1328-3.4219-3.9219-5.6016 1.5664 1.4922 3.2305 2.8789 4.9844 4.1445 1.8047 1.2578 3.6719 2.418 5.6016 3.4727 1.918 1.0469 3.9219 1.9258 5.9922 2.6328 1.457 0.50391 2.8555 1.0078 4.3125 1.3984 0.054688-0.22266 0.054688-0.45312 0-0.67188-0.24219-3.8555-1.9375-7.4727-4.7461-10.121-2.8047-2.6523-6.5156-4.1367-10.375-4.1602-2.957-0.64844-5.8594-1.5273-8.6797-2.6328-2.4648-0.55859-1.1211 4.1992-0.89453 5.6016h-0.003907c0.44531 2.1758 1.1211 4.2969 2.0195 6.3281 1.8047 4.3477 5.4297 7.6836 9.9102 9.1289z"/>
  <path d="m171.98 220.02c2.0156 1.6797 9.9102 4.8711 12.77 2.7422l-0.003906 0.003906c-3.082-2.2109-5.8828-4.7852-8.3438-7.6719-1.5703-1.6562-2.8711-3.5469-3.8633-5.6016-0.94531-2.1445-1.293-4.5039-1.0078-6.832 0.67188 2.0625 1.5547 4.0508 2.6328 5.9375 2.0117 3.918 4.6641 7.4727 7.8398 10.527 1.0078 1.0625 2.1289 2.1289 3.2461 3.1367 0.12891-0.16797 0.22266-0.35938 0.28125-0.5625 1.4648-3.5898 1.5156-7.5977 0.14453-11.223s-4.0625-6.5977-7.5352-8.3203c-2.3594-1.8789-4.5703-3.9375-6.6094-6.1602-1.9609-1.625-2.8555 3.2461-3.1914 4.4258-0.58984 2.2109-0.91016 4.4844-0.95313 6.7734-0.46094 4.7461 1.2227 9.4492 4.5938 12.824z"/>
  <path d="m185.64 186.26c1.6797 1.9609 9.0156 6.3281 12.152 4.7031-2.7148-2.6094-5.1211-5.5195-7.168-8.6797-1.3047-1.8984-2.2891-4-2.9141-6.2188-0.64063-2.25-0.64063-4.6367 0-6.8867 0.375 2.1367 0.9375 4.2344 1.6797 6.2734 0.78516 1.9609 1.457 4.0312 2.4062 5.9375l0.003906-0.003907c1.0312 1.9414 2.1914 3.8125 3.4727 5.6016 0.83984 1.2305 1.7344 2.4062 2.6875 3.5859v-0.003906c0.17187-0.12891 0.30859-0.30469 0.39062-0.50391 1.9961-3.3203 2.6602-7.2734 1.8594-11.066-0.80078-3.7891-3.0039-7.1406-6.1719-9.3711-2.0508-2.2188-3.9258-4.5977-5.5977-7.1133-1.6797-1.9023-3.3594 2.7422-3.8086 3.8633-0.89844 2.0312-1.5742 4.1523-2.0156 6.3281-1.1211 4.7422-0.007813 9.7383 3.0234 13.555z"/>
  <path d="m202.27 162.4c1.3984 2.1836 8.1211 7.5039 11.199 6.2734h0.28125c-2.3789-2.9375-4.3906-6.1523-5.9922-9.5742-1.0352-2.0625-1.7344-4.2734-2.0742-6.5547-0.25391-2.3789 0.15234-4.7812 1.1758-6.9414 0.10938 2.1602 0.37109 4.3125 0.78516 6.4375 0.50391 2.0703 0.95312 4.1992 1.625 6.2734 0.76172 2.0625 1.6406 4.082 2.6289 6.0469 0.72656 1.2891 1.457 2.6328 2.2383 3.9219l0.44922-0.44922h0.003906c2.4297-3.0234 3.6172-6.8594 3.3281-10.727-0.29297-3.8672-2.043-7.4805-4.8984-10.105-1.7539-2.4766-3.293-5.0977-4.5898-7.8398-1.3984-2.0703-3.6953 2.3516-4.3125 3.3594-1.1367 1.8984-2.0742 3.9062-2.8008 5.9922-1.8516 4.5273-1.5 9.6562 0.95313 13.887z"/>
  <path d="m229.04 185.59c-2.5742-0.39063-10.191-4.2578-10.473-7.8398v-0.003906c3.6641 0.9375 7.4219 1.4258 11.203 1.457 2.3047 0.085937 4.6133-0.19531 6.832-0.83984 2.1445-0.71484 4.0742-1.9648 5.5977-3.6406-2.0195 0.78906-4.0977 1.4258-6.2148 1.9062-2.0703 0.39062-4.1445 0.89453-6.3281 1.1211v-0.003906c-2.1992 0.14062-4.4062 0.14062-6.6094 0l-4.4805-0.33594c-0.023437-0.20312-0.023437-0.41016 0-0.61328 1.7422-3.4648 4.7344-6.1406 8.375-7.4844 3.6406-1.3398 7.6523-1.2461 11.227 0.25781 2.9766 0.54297 5.9922 0.85938 9.0156 0.95312 2.5195 0.39062-0.55859 4.3125-1.2305 5.3203-1.25 1.832-2.6992 3.5195-4.3125 5.0391-3.293 3.3633-7.9102 5.0859-12.602 4.707z"/>
  <path d="m227.86 137.7c0.39062 2.1836 3.7539 8.5664 6.7188 8.7344l0.003907 0.003906c-0.83984-3.0703-1.293-6.2305-1.3477-9.4102-0.10156-1.8828 0.085938-3.7734 0.5625-5.5977 0.51562-1.8984 1.5664-3.6094 3.0234-4.9297-0.63281 1.7148-1.1367 3.4766-1.5117 5.2656 0 1.7344-0.67188 3.5273-0.83984 5.3203-0.14453 1.8633-0.14453 3.7344 0 5.5977 0 1.2891 0 2.5195 0.39062 3.8086h0.50391c6.0312-3.2266 8.4922-10.602 5.6016-16.801-0.53906-2.4883-0.85547-5.0156-0.95312-7.5586-0.39062-2.1289-3.6406 0.50391-4.4258 1.1211h0.003906c-1.543 1.0625-2.9492 2.3008-4.2031 3.6953-2.7422 2.8633-4.0391 6.8164-3.5273 10.75z"/>
  <path d="m248.75 159.77c-1.793-1.2305-6.2148-6.8867-5.1523-9.6875v-0.003906c2.4609 2.0352 5.168 3.7461 8.0625 5.0977 1.7422 0.94141 3.6406 1.5664 5.6016 1.8477 1.8984 0.26562 3.832 0.015624 5.5977-0.72656-1.8867-0.10156-3.7578-0.36328-5.5977-0.78516-1.7812-0.35938-3.5391-0.82812-5.2656-1.3984-1.7383-0.62891-3.4258-1.3945-5.0391-2.2969-1.1211-0.55859-2.2383-1.2305-3.3047-1.9023l0.39062-0.33594v-0.003906c5.3008-4.1914 12.941-3.5547 17.473 1.457 2.0703 1.5039 4.2617 2.8359 6.5508 3.9766 1.793 1.2305-1.9609 3.0781-2.8555 3.5859-1.5938 0.94922-3.2852 1.7383-5.0391 2.3516-3.7891 1.3516-7.9883 0.91797-11.422-1.1758z"/>
  <path d="m251.16 122.02c0 1.9609 1.8477 8.1758 4.4805 8.793-0.23047-2.8438-0.10156-5.7031 0.39062-8.5117 0.22656-1.7266 0.71484-3.4102 1.457-4.9844 0.78516-1.5977 2.0117-2.9375 3.5273-3.8633-0.83984 1.3984-1.5703 2.8555-2.1836 4.3672-0.55859 1.5117-1.2305 3.0234-1.6797 4.5938v-0.003907c-0.38672 1.6289-0.68359 3.2734-0.89453 4.9297v3.4141h0.44922l-0.003906 0.003907c5.8242-1.7617 9.2773-7.7422 7.8984-13.664-0.019531-2.3047 0.12891-4.6094 0.44531-6.8906 0-1.9023-3.2461 0-4.0898 0h0.003907c-1.5273 0.67578-2.9727 1.5234-4.3125 2.5195-3.207 2.0469-5.2461 5.5-5.4883 9.2969z"/>
  <path d="m277.87 139.61c-1.7344-0.89453-6.2148-5.6016-5.6016-8.1758h0.003907c2.4023 1.5742 4.9766 2.8711 7.6719 3.8633 1.6133 0.62109 3.3125 1 5.0391 1.1172 1.7734 0.074219 3.5312-0.33203 5.0938-1.1758-1.6406 0.11719-3.2852 0.11719-4.9258 0-1.5664 0-3.1914-0.39062-4.8164-0.78516v0.003906c-1.6133-0.39844-3.1875-0.94141-4.7031-1.625-1.0703-0.39062-2.1172-0.83984-3.1367-1.3438 0.078125-0.15625 0.19531-0.28906 0.33594-0.39062 4.4492-4.1406 11.344-4.1406 15.793 0 1.9766 1.1602 4.0586 2.1367 6.2148 2.9102 1.6797 0.95313-1.5117 2.9688-2.2383 3.5273-1.3398 1-2.7852 1.8438-4.3125 2.5195-3.3555 1.4648-7.1992 1.3008-10.418-0.44531z"/>
  <path d="m301.62 124.99c-1.9609-0.28125-7.8398-3.0781-8.0625-5.6016h-0.003907c2.793 0.64062 5.6484 0.94141 8.5117 0.89844 1.7461 0.003907 3.4805-0.24219 5.1523-0.73047 1.6914-0.5625 3.1992-1.5703 4.3711-2.9102-1.5273 0.64062-3.1016 1.1641-4.707 1.5664-1.5664 0.33594-3.1367 0.72656-4.8164 0.95312-1.6562 0.11328-3.3242 0.11328-4.9844 0h-3.4141c-0.023437-0.14844-0.023437-0.30078 0-0.44922 2.6914-5.4297 9.1094-7.8672 14.727-5.5977 2.2812 0.35156 4.582 0.53906 6.8906 0.55859 1.9023 0.28125-0.33594 3.2461-0.83984 4.0312-0.94141 1.3867-2.0117 2.6797-3.1953 3.8633-2.543 2.5156-6.0703 3.7656-9.6289 3.418z"/>
  <path d="m275.86 112c0 1.6797 0.89453 7.2227 3.0781 8.0078h0.003906c0.046875-2.5 0.40234-4.9805 1.0625-7.3906 0.35547-1.4648 0.94141-2.8633 1.7344-4.1445 0.80469-1.3125 1.9727-2.3633 3.3633-3.0234-0.85938 1.1328-1.625 2.332-2.2969 3.582-0.61719 1.2305-1.2891 2.4648-1.8477 3.8086-0.51172 1.3633-0.90625 2.7695-1.1758 4.1992-0.24609 0.96094-0.43359 1.9336-0.5625 2.9141h0.39453c5.2227-1.0195 8.7539-5.9258 8.0625-11.199 0.14062-1.9922 0.47656-3.9609 1.0078-5.8828 0-1.6797-2.8555-0.39062-3.6406 0-1.375 0.45703-2.6914 1.0742-3.918 1.8477-2.7656 1.5078-4.6992 4.1836-5.2656 7.2812z"/>
  <path d="m409.98 119.95c41.418 14.902 74.25 47.172 89.871 88.324 15.617 41.156 12.461 87.082-8.6406 125.71-21.102 38.629-58.043 66.105-101.11 75.199-2.4648 0.50391-4.9297 0.95312-7.4492 1.3438-11.762 3.2461-23.184 11.199-8.0078 12.152 2.5742 0 5.1523-0.55859 7.6172-0.95312 46.418-6.9336 87.254-34.375 111.21-74.734 23.961-40.355 28.504-89.348 12.367-133.42-16.133-44.074-51.23-78.555-95.582-93.906z"/>
  <path d="m417.48 377.11c1.0078 2.9102 7.0547 11.199 11.199 10.641v-0.003906c-1.6836-4.0195-2.8672-8.2344-3.5273-12.543-0.59766-2.6641-0.75-5.4062-0.44922-8.1211 0.34375-2.7383 1.4297-5.332 3.1367-7.5039-0.54688 2.5078-0.88672 5.0547-1.0078 7.6172v7.6719c0.35938 2.5352 0.88281 5.0391 1.5664 7.5039 0.39062 1.7344 0.83984 3.4727 1.3438 5.1523 0.24609-0.066406 0.47266-0.17969 0.67187-0.33594 3.6836-2.7461 6.1953-6.7812 7.0234-11.301 0.83203-4.5156-0.074219-9.1836-2.543-13.059-1.2969-3.2461-2.3086-6.6016-3.0234-10.023-1.0078-2.8555-4.9297 1.5117-5.9922 2.5195-1.8828 1.8203-3.5586 3.8477-4.9844 6.0469-3.4375 4.4688-4.6914 10.246-3.4141 15.738z"/>
  <path d="m449.06 415.57c-2.4648-1.8477-8.1758-10.191-6.4414-14.055h0.003906c3.2773 3.0156 6.9062 5.6289 10.809 7.7852 2.3242 1.3945 4.8555 2.418 7.5039 3.0234 2.707 0.54688 5.5117 0.35547 8.1172-0.55859-2.5586-0.28906-5.0859-0.79688-7.5586-1.5117-2.4492-0.66797-4.8633-1.4727-7.2227-2.4102-2.3828-1.0273-4.6836-2.2227-6.8906-3.582-1.5117-0.95312-3.0234-1.9023-4.4805-2.9102l0.5625-0.5625c3.7734-2.6016 8.3906-3.6836 12.926-3.0312 4.5391 0.65625 8.6602 2.9961 11.547 6.5586 2.7695 2.2812 5.7305 4.3203 8.8477 6.1055 2.3516 1.8477-3.0234 4.1445-4.3125 4.8164v-0.003907c-2.3398 1.1914-4.8008 2.1289-7.3359 2.8008-5.4531 1.6797-11.375 0.77344-16.074-2.4648z"/>
  <path d="m484.79 389.76c-2.8555-1.0625-10.695-7.5039-10.078-11.648h-0.003906c3.9883 1.9766 8.1992 3.4648 12.547 4.4219 2.625 0.69922 5.3477 0.98047 8.0625 0.83984 2.7656-0.25391 5.4141-1.2383 7.6719-2.8555-2.5352 0.44141-5.1016 0.66797-7.6719 0.67188h-7.6172c-2.5703-0.35547-5.1133-0.87891-7.6133-1.5664-1.6797-0.44922-3.4141-0.95312-5.0977-1.5664v-0.003906c0.097656-0.22266 0.23047-0.42969 0.39062-0.61328 2.8867-3.5664 7.0156-5.9062 11.555-6.5508 4.5391-0.64062 9.1562 0.45703 12.918 3.0781 3.293 1.4102 6.7031 2.5352 10.191 3.3594 2.8008 1.1211-1.7344 4.8711-2.8008 5.8789-1.8828 1.8008-3.9688 3.3789-6.2148 4.7031-4.8359 3.0938-10.832 3.7734-16.238 1.8516z"/>
  <path d="m448.45 359.18c2.3516 2.0703 11.594 6.1602 15.008 3.6953-3.5742-2.6758-6.8242-5.7578-9.6875-9.1836-1.8125-2.0273-3.2891-4.3359-4.3711-6.832-1.0352-2.5547-1.3633-5.3398-0.94922-8.0625 0.78906 2.4414 1.7617 4.8164 2.9102 7.1094 1.1758 2.1836 2.2969 4.4805 3.7539 6.6641 1.5977 2.0781 3.3555 4.0273 5.2617 5.8242 1.1953 1.3438 2.4258 2.6328 3.6953 3.8633v0.003906c0.17188-0.19922 0.30469-0.42578 0.39453-0.67188 1.8516-4.1836 2.0469-8.9141 0.55078-13.234-1.4961-4.3242-4.5742-7.918-8.6172-10.062-2.7109-2.3203-5.2383-4.8477-7.5586-7.5625-2.2969-1.9609-3.5273 3.8086-3.9766 5.1523-0.74609 2.5195-1.2148 5.1094-1.3984 7.7305-0.80469 5.6758 1.0312 11.414 4.9844 15.566z"/>
  <path d="m506.8 359.13c-2.7422-0.50391-10.754-4.9844-11.199-8.793-0.035156-0.089844-0.035156-0.19141 0-0.28125 3.8828 1.1289 7.8867 1.7891 11.926 1.9609 2.4648 0.21484 4.9453 0.007813 7.3359-0.61719 2.4531-0.59375 4.6719-1.8984 6.3828-3.75-2.1875 0.78906-4.4336 1.4062-6.7188 1.8477-2.2383 0.33594-4.5352 0.78516-6.8867 0.95312s-4.707 0.16797-7.0547 0c-1.625 0-3.2461-0.33594-4.8164-0.55859v-0.003906c-0.027343-0.22266-0.027343-0.44922 0-0.67188 2.0078-3.6484 5.3281-6.4023 9.2891-7.6992 3.957-1.3008 8.2617-1.0508 12.047 0.69922 3.1836 0.72656 6.4258 1.1758 9.6875 1.3438 2.6328 0.55859-0.78516 4.6484-1.5664 5.6016h-0.003906c-1.3945 1.918-3.0117 3.6641-4.8164 5.207-3.5898 3.5508-8.5859 5.3008-13.605 4.7617z"/>
  <path d="m467.6 332.7c1.793 2.1836 9.5195 7.1133 12.992 5.6016-2.8516-2.8945-5.3359-6.1289-7.3945-9.6328-1.3594-2.0586-2.3633-4.3281-2.9688-6.7188-0.67188-2.418-0.67188-4.9766 0-7.3945 0.35938 2.3125 0.88281 4.5977 1.5703 6.832 0.78516 2.1289 1.457 4.3672 2.4062 6.4961 1.3984 2.0625 2.9336 4.0234 4.5938 5.8828 0.89453 1.3438 1.8477 2.6875 2.8008 3.9766v-0.003906c0.17578-0.16016 0.32813-0.34766 0.44531-0.55859 2.3555-3.5195 3.2578-7.8125 2.5312-11.984-0.73047-4.1719-3.043-7.9023-6.4492-10.414-2.0742-2.4609-3.9492-5.082-5.6016-7.8398-1.7344-2.1289-3.6953 2.8555-4.2578 4.0312h0.003907c-1.0195 2.1719-1.8047 4.4414-2.3516 6.7734-1.7773 4.9766-1.1562 10.496 1.6797 14.953z"/>
  <path d="m523.99 321.83c-2.6328 0.33594-11.199-1.2891-12.207-4.6484 3.7891-0.12109 7.5508-0.70312 11.199-1.7344 2.2109-0.61719 4.3086-1.582 6.2148-2.8555 1.9648-1.2773 3.5508-3.0586 4.5938-5.1523-1.7734 1.3359-3.6445 2.5352-5.6016 3.582-1.9023 0.95312-3.8086 2.0156-5.6016 2.8555h0.003906c-2.0547 0.75391-4.1484 1.3906-6.2734 1.9062-1.457 0.33594-2.9102 0.61719-4.4258 0.83984-0.023437-0.20703-0.023437-0.41406 0-0.61719 0.72656-3.8008 2.8594-7.1875 5.9727-9.4844 3.1172-2.293 6.9844-3.3281 10.828-2.8906 3.0078-0.26953 5.9883-0.79297 8.9062-1.5703 2.5195 0 0.67188 4.3125 0.28125 5.6016h-0.003906c-0.79688 2.0898-1.832 4.082-3.0781 5.9375-2.1914 4.2188-6.1562 7.2422-10.809 8.2305z"/>
  <path d="m485.07 305.26c2.3516 1.0625 10.809 2.1289 13.047-0.67187h0.003906c-3.543-1.25-6.9102-2.9453-10.023-5.043-1.957-1.1953-3.6992-2.7109-5.1523-4.4805-1.4766-1.7969-2.4258-3.9688-2.7461-6.2695 1.2227 1.7734 2.5703 3.457 4.0312 5.0391 1.457 1.5117 2.9688 3.0781 4.5938 4.4805 1.7969 1.3516 3.6641 2.6055 5.6016 3.75l3.9219 2.1836h-0.003906c0.050781-0.19922 0.050781-0.41016 0-0.61328 0.5-3.8125-0.47266-7.6758-2.7227-10.797-2.2461-3.1211-5.5977-5.2656-9.375-6.0039-2.5977-1.3555-5.0859-2.9102-7.4453-4.6484-2.2969-1.0625-1.9609 3.8633-1.9609 5.0977-0.011719 2.2031 0.23438 4.4023 0.72656 6.5508 0.64844 4.7461 3.4062 8.9453 7.5039 11.426z"/>
  <path d="m491.57 274.01c2.3516 1.0625 10.809 2.1289 12.992-0.67187-3.543-1.2383-6.9141-2.9297-10.023-5.0391-1.9688-1.1953-3.7305-2.7109-5.207-4.4805-1.3867-1.8086-2.2578-3.9531-2.5195-6.2148 1.2227 1.7734 2.5703 3.457 4.0312 5.0391 1.5117 1.457 2.9688 3.0781 4.6484 4.4805 1.7852 1.3633 3.6562 2.6172 5.6016 3.75 1.2305 0.72656 2.5742 1.5117 3.9219 2.1836h-0.003907c0.027344-0.20313 0.027344-0.41016 0-0.61328 0.5-3.8164-0.47656-7.6758-2.7227-10.797-2.2461-3.1211-5.5977-5.2695-9.375-6.0039-2.7578-1.207-5.418-2.6289-7.9492-4.2578-2.2969-1.0625-1.9609 3.8633-1.9609 5.0977-0.011719 2.2031 0.23438 4.4023 0.72656 6.5508 0.83594 4.6523 3.7148 8.6797 7.8398 10.977z"/>
  <path d="m490 237.83c2.5742 0.33594 11.199-1.1758 12.266-4.5352-3.793-0.14062-7.5547-0.74219-11.203-1.793-2.2148-0.57031-4.3281-1.4766-6.2695-2.6875-1.9492-1.2891-3.5-3.0898-4.4805-5.207 1.7734 1.332 3.6484 2.5273 5.5977 3.582 1.8477 0.95312 3.7539 2.0703 5.6016 2.8555 2.0352 0.82422 4.1328 1.4766 6.2734 1.9609 1.457 0.39063 2.9102 0.67188 4.3672 0.95313 0.054687-0.22266 0.054687-0.45313 0-0.67188-0.67578-3.8359-2.7891-7.2656-5.9141-9.5898-3.125-2.3203-7.0195-3.3594-10.887-2.8984-3.0156-0.27734-5.9961-0.83984-8.9023-1.6797-2.4648 0-0.67188 4.3125-0.33594 5.6016v-0.003906c0.77344 2.0625 1.7695 4.0352 2.9648 5.8828 2.2148 4.2461 6.2266 7.2695 10.922 8.2305z"/>
  <path d="m485.52 210.73c2.3516-1.0078 8.793-6.6641 8.1758-10.137v0.003906c-3.3047 1.8047-6.8242 3.1953-10.473 4.1406-2.1758 0.66406-4.4453 0.96484-6.7188 0.89844-2.3477-0.09375-4.6211-0.85156-6.5508-2.1836 2.1328 0.27344 4.2852 0.38672 6.4375 0.33594 2.1367-0.039062 4.2656-0.19141 6.3867-0.44922 2.1836-0.42969 4.3359-1.0078 6.4375-1.7344l4.2578-1.457c-0.097656-0.20703-0.23047-0.39844-0.39453-0.55859-2.5-2.9297-6.0273-4.793-9.8594-5.2109-3.8281-0.41406-7.6719 0.64844-10.746 2.9688-2.7461 1.2852-5.5938 2.332-8.5117 3.1367-2.2969 1.0078 1.625 4.0312 2.5195 4.8711 1.7188 1.4766 3.5938 2.7539 5.5977 3.8086 4.0195 2.5117 8.9531 3.0898 13.441 1.5664z"/>
  <path d="m530.6 286.72c-2.6328 0-11.199-1.3438-12.207-4.6484h-0.003906c3.7891-0.10156 7.5508-0.66406 11.203-1.6797 2.2344-0.53516 4.3711-1.4219 6.3281-2.6289 1.9609-1.2852 3.5312-3.0898 4.5352-5.2109-1.7773 1.332-3.6484 2.5312-5.6016 3.5859-1.9023 0.95312-3.8086 2.0156-5.6016 2.8008h0.003906c-2.0391 0.80078-4.1367 1.4375-6.2734 1.9023-1.457 0.38281-2.9336 0.68359-4.4258 0.89453-0.027344-0.20312-0.027344-0.41016 0-0.61328 0.71484-3.8086 2.8438-7.2031 5.9609-9.5 3.1211-2.2969 6.9922-3.3242 10.84-2.8789 3.0039-0.29297 5.9805-0.81641 8.9062-1.5664 2.5195-0.33594 0.67188 4.3125 0 5.6016-0.69531 2.1055-1.6172 4.1367-2.7461 6.0469-2.3086 4.1055-6.2969 6.9922-10.918 7.8945z"/>
  <path d="m530.32 253.62c-2.5195 0.61719-11.199 0-12.656-3.1914 3.7305-0.56641 7.3789-1.582 10.863-3.0273 2.1562-0.78516 4.1758-1.9023 5.9922-3.3008 1.7812-1.4883 3.1328-3.4219 3.9219-5.6016-1.5547 1.5078-3.2227 2.8906-4.9844 4.1445-1.8008 1.2578-3.6719 2.418-5.6016 3.4727-1.9414 1.0352-3.9648 1.918-6.0469 2.6328-1.3984 0.50391-2.8555 1.0078-4.3125 1.3984-0.027344-0.22266-0.027344-0.44922 0-0.67188 0.24219-3.8633 1.9453-7.4883 4.7656-10.141 2.8164-2.6523 6.5391-4.1328 10.41-4.1406 2.957-0.64844 5.8594-1.5273 8.6797-2.6328 2.4648-0.55859 1.1211 4.1992 0.89453 5.6016-0.41797 1.9961-1.0391 3.9492-1.8477 5.8242-1.7031 4.5859-5.418 8.1367-10.078 9.6328z"/>
  <path d="m526.51 220.02c-2.0156 1.6797-9.9102 4.8711-12.77 2.7422v0.003906c3.0977-2.1523 5.918-4.6719 8.4023-7.5039 1.5898-1.6406 2.8945-3.5352 3.8633-5.6016 0.96094-2.1406 1.332-4.5 1.0625-6.832-0.71875 2.043-1.5977 4.0312-2.6289 5.9375-1.0234 1.9219-2.1445 3.7891-3.3633 5.5977-1.2734 1.7969-2.6992 3.4805-4.2539 5.0391-1.0078 1.0625-2.0703 2.1289-3.1914 3.1367-0.14453-0.16406-0.25781-0.35547-0.33594-0.55859-1.4609-3.5977-1.5039-7.6133-0.12109-11.238 1.3789-3.625 4.0859-6.5938 7.5664-8.3047 2.2383-1.9844 4.3164-4.1367 6.2188-6.4414 1.9609-1.625 2.8555 3.2461 3.1914 4.4258 0.58984 2.2109 0.90625 4.4844 0.95312 6.7734 0.48438 4.75-1.2031 9.4648-4.5938 12.824z"/>
  <path d="m512.9 186.26c-1.7344 1.9609-9.0703 6.3281-12.207 4.7031 2.75-2.5781 5.1562-5.4961 7.168-8.6797 1.3008-1.9102 2.3008-4.0078 2.9688-6.2188 0.61719-2.2539 0.61719-4.6328 0-6.8867-0.375 2.1367-0.9375 4.2344-1.6797 6.2734-0.69531 2.0195-1.5 4-2.4102 5.9336-1.0312 1.9297-2.1719 3.8008-3.4141 5.6016l-2.6875 3.5859v-0.003906c-0.19141-0.125-0.34375-0.30078-0.44922-0.50391-1.9961-3.3203-2.6602-7.2734-1.8594-11.066 0.80078-3.7891 3.0039-7.1406 6.1719-9.3711 2.0547-2.2188 3.9258-4.5977 5.6016-7.1133 1.6797-1.9023 3.3594 2.7422 3.8633 3.8633 0.90234 2.0234 1.5625 4.1484 1.9609 6.3281 1.0938 4.7422-0.019532 9.7266-3.0273 13.555z"/>
  <path d="m496.27 162.4c-1.457 2.1836-8.1211 7.5039-11.48 6.2734 2.3594-2.9375 4.3516-6.1562 5.9336-9.5742 1.0586-2.0508 1.7578-4.2695 2.0742-6.5547 0.28516-2.3789-0.125-4.7891-1.1758-6.9414-0.10156 2.1641-0.38281 4.3203-0.83984 6.4375-0.4375 2.1172-0.98047 4.2109-1.625 6.2734-0.73828 2.0742-1.6172 4.0938-2.6328 6.0469-0.67188 1.2891-1.3984 2.6328-2.1836 3.9219l-0.50391-0.44922c-2.4297-3.0234-3.6211-6.8594-3.3281-10.727 0.28906-3.8672 2.0391-7.4805 4.8945-10.105 1.7578-2.4766 3.293-5.0977 4.5938-7.8398 1.3984-2.0703 3.6953 2.3516 4.3125 3.3594 1.1797 1.875 2.1211 3.8867 2.8008 5.9922 1.8594 4.5156 1.5469 9.6328-0.83984 13.887z"/>
  <path d="m469.45 185.59c2.5742-0.39063 10.191-4.2578 10.473-7.8398v-0.003906c-3.6641 0.9375-7.4219 1.4258-11.203 1.457-2.2812 0.007812-4.5508-0.35156-6.7188-1.0625-2.1602-0.6875-4.0938-1.9453-5.6016-3.6406 2.0273 0.78125 4.1016 1.4141 6.2188 1.9023 2.0703 0.39062 4.1992 0.89453 6.3281 1.1211 2.1992 0.14062 4.4062 0.14062 6.6055 0 1.5117 0 2.9688 0 4.4805-0.33594 0.023438-0.20312 0.023438-0.41016 0-0.61719-1.7422-3.4648-4.7344-6.1367-8.375-7.4805-3.6367-1.3398-7.6484-1.25-11.223 0.25781-2.9805 0.54297-5.9922 0.85938-9.0195 0.95312-2.5195 0.39062 0.55859 4.3125 1.2305 5.3203h0.003907c1.25 1.8281 2.6953 3.5195 4.3125 5.0391 3.2266 3.4102 7.8008 5.2148 12.488 4.9297z"/>
  <path d="m470.68 137.7c-0.39063 2.1836-3.7539 8.5664-6.7773 8.7344v0.003906c0.85938-3.0664 1.3281-6.2266 1.4023-9.4102 0.078124-1.8828-0.10938-3.7695-0.5625-5.5977-0.55859-1.8945-1.625-3.5977-3.0781-4.9297 0.65625 1.707 1.1641 3.4688 1.5117 5.2656 0.39453 1.7539 0.67578 3.5273 0.83984 5.3203 0.14453 1.8633 0.14453 3.7344 0 5.5977 0 1.2891 0 2.5195-0.39062 3.8086h-0.50391c-6.0547-3.207-8.5195-10.602-5.6016-16.801 0.49219-2.4922 0.79297-5.0195 0.89453-7.5586 0.39063-2.1289 3.6406 0.50391 4.4805 1.1211 1.5234 1.0625 2.9141 2.3047 4.1445 3.6953 2.7578 2.8594 4.0898 6.8047 3.6406 10.75z"/>
  <path d="m449.73 159.77c1.8477-1.2305 6.2734-6.8867 5.207-9.6875l0.003906-0.003906c-2.4414 2.0352-5.1328 3.7461-8.0078 5.0977-1.7461 0.93359-3.6406 1.5586-5.6016 1.8477-1.8984 0.26562-3.832 0.015624-5.6016-0.72656 1.8867-0.10938 3.7578-0.37109 5.6016-0.78516 1.7812-0.35938 3.5391-0.82812 5.2656-1.3984 1.7305-0.64844 3.4141-1.418 5.0391-2.2969 1.1211-0.55859 2.1836-1.2305 3.3047-1.9023l-0.39062-0.33594-0.003907-0.003906c-5.3164-4.1992-12.977-3.5625-17.527 1.457-2.0703 1.5039-4.2617 2.8359-6.5508 3.9766-1.7344 1.2305 1.9609 3.0781 2.8555 3.5859 1.6094 0.96094 3.3203 1.75 5.0977 2.3516 3.7539 1.3398 7.9141 0.90625 11.309-1.1758z"/>
  <path d="m447.38 122.02c0 1.9609-1.9023 8.1758-4.5352 8.793 0.23047-2.8438 0.10156-5.7031-0.39062-8.5117-0.20312-1.7305-0.69531-3.418-1.457-4.9844-0.78125-1.582-1.9844-2.918-3.4727-3.8633 0.86328 1.3828 1.5938 2.8477 2.1836 4.3672 0.64453 1.5 1.2031 3.0312 1.6797 4.5898 0.44141 1.6172 0.73828 3.2656 0.89844 4.9297 0.16797 1.1328 0.28125 2.2734 0.33594 3.418h-0.50391c-5.8516-1.7148-9.3906-7.6484-8.1211-13.609 0.046875-2.3047-0.10547-4.6094-0.44922-6.8867 0-1.9023 3.3047 0 4.1445 0 1.5273 0.67578 2.9727 1.5195 4.3125 2.5195 3.1289 2.0781 5.1172 5.4922 5.375 9.2383z"/>
  <path d="m420.67 139.61c1.7344-0.89453 6.2148-5.6016 5.6016-8.1758-2.3828 1.5742-4.9414 2.8672-7.6172 3.8633-1.6328 0.62891-3.3516 1.0078-5.0977 1.1172-1.7539 0.074219-3.4961-0.33203-5.0391-1.1758 1.6406 0.11719 3.2891 0.11719 4.9297 0 1.6172-0.17578 3.2227-0.4375 4.8164-0.78125 1.6289-0.40625 3.2188-0.94922 4.7578-1.625 1.0078-0.39062 2.0703-0.83984 3.0781-1.3438h0.003907c-0.0625-0.15234-0.15625-0.28516-0.28125-0.39062-4.4492-4.1406-11.344-4.1406-15.793 0-1.9805 1.1484-4.0625 2.125-6.2148 2.9102-1.6797 0.95313 1.457 2.9688 2.1836 3.5273 1.3516 1.0117 2.8164 1.8594 4.3672 2.5195 3.3242 1.4297 7.1172 1.2656 10.305-0.44531z"/>
  <path d="m396.93 124.99c1.9609-0.28125 7.7852-3.0781 8.0625-5.6016-2.793 0.63281-5.6484 0.93359-8.5117 0.89844-1.7461 0.011719-3.4805-0.23437-5.1523-0.73047-1.7031-0.53516-3.2188-1.5469-4.3672-2.9102 1.5039 0.64844 3.0586 1.1719 4.6484 1.5664 1.5664 0.33594 3.1914 0.72656 4.8164 0.95312 1.6562 0.11328 3.3242 0.11328 4.9805 0h3.418c0.046875-0.14453 0.046875-0.30078 0-0.44922-2.6914-5.4297-9.1094-7.8672-14.727-5.5977-2.2812 0.35156-4.582 0.53906-6.8906 0.55859-1.9023 0.28125 0.39062 3.2461 0.89453 4.0312h0.003907c0.90234 1.4141 1.9766 2.7109 3.1914 3.8633 2.5352 2.5273 6.0703 3.7812 9.6328 3.418z"/>
  <path d="m422.8 112c0 1.6797-0.95312 7.2227-3.1367 8.0078-0.046874-2.5-0.40625-4.9805-1.0625-7.3906-0.36328-1.457-0.92578-2.8516-1.6797-4.1445-0.84375-1.3008-2.0234-2.3477-3.418-3.0234 0.85547 1.1328 1.625 2.332 2.2969 3.582 0.68359 1.2383 1.3008 2.5078 1.8477 3.8086 0.50391 1.3711 0.91406 2.7734 1.2305 4.1992 0 0.95313 0.39062 1.9023 0.55859 2.9102h-0.44922l0.003907 0.003906c-5.2148-1.0195-8.7305-5.9336-8.0078-11.199-0.19531-1.9844-0.53125-3.9492-1.0078-5.8828 0-1.6797 2.8008-0.39062 3.5859 0h-0.003906c1.3789 0.45703 2.6953 1.0742 3.9219 1.8477 2.793 1.4883 4.75 4.168 5.3203 7.2812z"/>
  <path d="m394.8 277.03c-2 0.015625-3.875-0.96875-4.9961-2.6211-1.125-1.6523-1.3516-3.7578-0.60547-5.6094v-14.504c-0.51562-2.4453 0.64844-4.9336 2.8555-6.1055 1.8477-1.0938 4.1445-1.0938 5.9922 0 1.8711 1.0664 3.0273 3.0547 3.0234 5.207v17.473c0.019532 1.9297-0.89844 3.7461-2.4609 4.8711l-0.33594 0.28125c-1.0312 0.67578-2.2422 1.0273-3.4727 1.0078z"/>
  <path d="m325.25 372.01c-1.5156-0.015624-2.9727-0.59375-4.0859-1.625-0.28125 0-28-25.535-50.68-31.137-1.8477-0.48828-3.3633-1.8125-4.0898-3.582-0.78906-1.8242-0.62109-3.9219 0.44922-5.6016 10.574-18.883 11.324-41.723 2.0156-61.262-0.46484-0.89844-0.67578-1.9062-0.61719-2.9141 0-2.0703 2.5742-50.398 47.938-74.871l3.1367 5.1523-2.9141-5.1523 0.72656-0.39062 4.1992-2.0703 2.5742-1.1211c1.793-0.78516 3.4727-1.457 5.1523-2.0156l0.003907-0.003907c1.8945-0.65234 3.9844-0.33984 5.6016 0.84375 1.3984 1.1211 13.16 11.199 11.93 42.895h1.9023c-1.1758-30.633 9.2969-40.824 11.762-42.727h-0.003906c1.5977-1.2227 3.6836-1.5977 5.6016-1.0117 4.2578 1.5586 8.3945 3.4297 12.375 5.6016l0.89453 0.50391h0.33984c2.8438 1.7188 3.7578 5.4141 2.043 8.2617-1.7148 2.8438-5.4141 3.7578-8.2617 2.043h-0.72656c-2.1836-1.1758-4.4805-2.2969-6.8867-3.3047-2.5742 4.2578-6.832 14.785-4.9844 36.398v0.003906c0.15625 1.6719-0.39062 3.3359-1.5117 4.5898-1.168 1.2227-2.7891 1.9102-4.4805 1.9023h-14.168c-1.7031 0.019532-3.3398-0.66797-4.5156-1.8984-1.1797-1.2305-1.793-2.8945-1.6992-4.5938 1.9023-21.559-2.3516-32.09-4.9844-36.398l-0.78516 0.33594-2.1289 0.95312-3.6406 1.793-0.72656-0.003907h-0.44922c-23.336 12.992-38.789 36.633-41.328 63.223 9.3242 20.57 9.3242 44.164 0 64.734 13.117 5.4492 25.41 12.707 36.512 21.562l-8.9609-61.152-13.773-15.176c-0.96875-1.1211-1.5039-2.5508-1.5117-4.0312v-28c0.03125-2.4805 1.5586-4.6914 3.8633-5.6016 2.3281-0.88281 4.957-0.23828 6.6094 1.625l32.871 36.848c0.72656 0.83203 1.2266 1.832 1.457 2.9102l6.3281 33.602 4.0312 4.9844 3.9766-4.9297c0.87891-2.3359 3.1016-3.8945 5.5977-3.918 3.1758-0.035156 5.8125 2.4297 5.9922 5.5977 0.17578 1.6055-0.28906 3.2148-1.2852 4.4805l-8.457 10.359c-0.62891 1.7773-2.0625 3.1484-3.8633 3.6953-0.65234 0.20313-1.3359 0.30078-2.0156 0.28125-0.80469 0.011719-1.5977-0.12109-2.3555-0.39062-1.6523-0.60547-2.9453-1.9219-3.5273-3.5859l-8.5117-10.078c-0.59766-0.77734-1.0195-1.6758-1.2305-2.6328v-0.39062l-6.2148-32.816-21.223-23.855v9.8008l13.664 14.953-0.003906-0.003907c0.78125 0.90234 1.2891 2.0117 1.457 3.1914l11.535 78.398v0.003906c0.36328 2.5078-0.89062 4.9766-3.1367 6.1602-0.87891 0.39453-1.8359 0.58594-2.8008 0.55859z"/>
  <path d="m369.94 372.01c-0.98047-0.023437-1.9375-0.27344-2.8008-0.72656-2.2461-1.1836-3.5-3.6523-3.1367-6.1602l11.199-78.398v-0.003906c0.1875-1.1875 0.71484-2.293 1.5117-3.1914l13.664-14.953v-9.9102l-21.223 23.855-6.2148 32.703v0.61719c-0.18359 1.0273-0.62891 1.9922-1.2891 2.8008l-8.5117 10.473c-0.63281 1.5703-1.8906 2.8086-3.4727 3.4141-0.75391 0.26953-1.5508 0.40234-2.3516 0.39453-0.74219-0.003906-1.4766-0.11719-2.1836-0.33594-1.6719-0.62109-2.9961-1.9258-3.6406-3.5859l-8.2891-10.359c-0.94141-1.1914-1.3984-2.6875-1.2891-4.1992v-0.33594c0.21875-2.7773 2.3047-5.0469 5.0508-5.5 2.75-0.44922 5.4492 1.0352 6.543 3.5938l4.0312 4.9844 3.9766-4.9297 6.3828-33.602v0.003906c0.23828-1.0664 0.71484-2.0625 1.4023-2.9141l32.871-36.848c1.6602-1.8672 4.3008-2.5078 6.6328-1.6133 2.332 0.89844 3.8633 3.1484 3.8398 5.6484v28c0 1.5078-0.55859 2.9648-1.5703 4.0859l-13.945 15.344-9.125 60.984c11.098-8.8672 23.391-16.125 36.512-21.559-9.3242-20.574-9.3242-44.164 0-64.738-2.5391-26.453-17.844-50-40.992-63.055h-0.33594c-2.2969-1.1758-4.6484-2.2969-7.0547-3.3047-2.5742 4.2578-6.832 14.785-4.9844 36.398v0.003906c0.20312 1.6875-0.375 3.3789-1.5703 4.5898-1.1406 1.2266-2.7461 1.918-4.4219 1.9062h-14.672c-1.7266 0.015624-3.3867-0.67188-4.5938-1.9062-1.1836-1.2266-1.8125-2.8867-1.7344-4.5898 1.9023-21.559-2.3516-32.031-4.9844-36.344h-0.55859l-2.2383 1.0078-3.6406 1.793-0.73047 0.054687h-0.44922c-2.9688 1.543-6.6289 0.39063-8.1758-2.5781s-0.39062-6.6289 2.5781-8.1758l0.83984-0.44922 4.1992-2.0703 2.5742-1.1211c1.457-0.67188 3.2461-1.3984 5.1523-2.0703 2.0195-0.71484 4.2656-0.28906 5.8828 1.1211 2.6875 2.1289 12.824 12.434 11.648 42.617h1.9023c-1.2305-31.977 10.473-41.777 11.93-42.895l-0.003906-0.003907c1.4609-1.0859 3.3359-1.457 5.0977-1.0078h0.61719c4.25 1.5781 8.3828 3.4492 12.375 5.5977l0.95312 0.55859c44.801 24.359 47.32 72.801 47.434 74.594h-0.003907c0.046875 1.0156-0.1875 2.0195-0.67188 2.9141-9.3086 19.762-8.3672 42.828 2.5195 61.766 1.0039 1.6367 1.1719 3.6484 0.45312 5.4258-0.71875 1.7773-2.2344 3.1094-4.0898 3.5898-22.398 5.6016-50.398 30.91-50.68 31.137h-0.003906c-1.1523 0.98438-2.6289 1.5039-4.1406 1.457z"/>
  <path d="m362.49 198.24h-1.1758c-3.2539-0.64844-5.3789-3.793-4.7617-7.0547l8.625-43.848h-35.785l8.793 43.793c0.64844 3.2461-1.457 6.4062-4.7031 7.0547-3.2461 0.64844-6.4062-1.457-7.0547-4.7031l-10.027-51.297c-0.34375-1.7148 0.078124-3.4922 1.1523-4.8711 1.0781-1.3789 2.7031-2.2148 4.4492-2.2969h50.398c1.7969 0 3.5 0.80469 4.6406 2.1914 1.1367 1.3906 1.5938 3.2148 1.2422 4.9766l-9.9688 50.961c-0.4375 2.8906-2.8984 5.0469-5.8242 5.0938z"/>
  <path d="m347.26 183.18c-3.3125 0-5.9922-2.6836-5.9922-5.9922v-35.449c0-3.3086 2.6797-5.9922 5.9922-5.9922 3.3086 0 5.9883 2.6836 5.9883 5.9922v35.449c0 1.5898-0.62891 3.1133-1.7539 4.2383-1.1211 1.1211-2.6484 1.7539-4.2344 1.7539z"/>
 </g>
</svg>
