<?xml version="1.0" encoding="UTF-8"?>
<svg width="700pt" height="700pt" version="1.1" viewBox="0 0 700 700" xmlns="http://www.w3.org/2000/svg" xmlns:xlink="http://www.w3.org/1999/xlink">
 <defs>
  <symbol id="h" overflow="visible">
   <path d="m14.656-0.875c-0.76172 0.39844-1.5547 0.69531-2.375 0.89062-0.8125 0.19531-1.6641 0.29688-2.5469 0.29688-2.6562 0-4.7617-0.73828-6.3125-2.2188-1.5547-1.4883-2.3281-3.5039-2.3281-6.0469 0-2.5508 0.77344-4.5664 2.3281-6.0469 1.5508-1.4883 3.6562-2.2344 6.3125-2.2344 0.88281 0 1.7344 0.10156 2.5469 0.29688 0.82031 0.19922 1.6133 0.49609 2.375 0.89062v3.2969c-0.76172-0.51953-1.5117-0.89844-2.25-1.1406-0.74219-0.23828-1.5234-0.35938-2.3438-0.35938-1.4688 0-2.625 0.46875-3.4688 1.4062-0.83594 0.9375-1.25 2.2344-1.25 3.8906 0 1.6484 0.41406 2.9375 1.25 3.875 0.84375 0.9375 2 1.4062 3.4688 1.4062 0.82031 0 1.6016-0.11719 2.3438-0.35938 0.73828-0.23828 1.4883-0.61719 2.25-1.1406z"/>
  </symbol>
  <symbol id="b" overflow="visible">
   <path d="m10.719-8.7031c-0.33594-0.15625-0.66797-0.26953-1-0.34375-0.32422-0.082031-0.65625-0.125-1-0.125-0.98047 0-1.7344 0.32031-2.2656 0.95312-0.53125 0.625-0.79688 1.5273-0.79688 2.7031v5.5156h-3.8125v-11.969h3.8125v1.9688c0.48828-0.78125 1.0508-1.3477 1.6875-1.7031 0.64453-0.36328 1.4102-0.54688 2.2969-0.54688 0.13281 0 0.27344 0.007812 0.42188 0.015625 0.14453 0.011719 0.36328 0.03125 0.65625 0.0625z"/>
  </symbol>
  <symbol id="a" overflow="visible">
   <path d="m13.781-6.0156v1.0938h-8.9375c0.09375 0.89844 0.41406 1.5703 0.96875 2.0156 0.55078 0.44922 1.3281 0.67188 2.3281 0.67188 0.80078 0 1.625-0.11719 2.4688-0.35938 0.84375-0.23828 1.7109-0.59766 2.6094-1.0781v2.9531c-0.90625 0.33594-1.8125 0.58984-2.7188 0.76562s-1.8125 0.26562-2.7188 0.26562c-2.1562 0-3.8398-0.54688-5.0469-1.6406-1.1992-1.1016-1.7969-2.6484-1.7969-4.6406 0-1.9453 0.58594-3.4766 1.7656-4.5938 1.1758-1.125 2.8008-1.6875 4.875-1.6875 1.875 0 3.375 0.57031 4.5 1.7031 1.1328 1.125 1.7031 2.6367 1.7031 4.5312zm-3.9375-1.2656c0-0.72656-0.21484-1.3125-0.64062-1.75-0.41797-0.44531-0.96875-0.67188-1.6562-0.67188-0.74219 0-1.3438 0.21094-1.8125 0.625-0.46094 0.41797-0.74609 1.0156-0.85938 1.7969z"/>
  </symbol>
  <symbol id="d" overflow="visible">
   <path d="m7.2031-5.3906c-0.80469 0-1.4062 0.13672-1.8125 0.40625-0.39844 0.27344-0.59375 0.67188-0.59375 1.2031 0 0.48047 0.16016 0.85938 0.48438 1.1406 0.32031 0.27344 0.77344 0.40625 1.3594 0.40625 0.71875 0 1.3203-0.25391 1.8125-0.76562 0.48828-0.51953 0.73438-1.1719 0.73438-1.9531v-0.4375zm5.8438-1.4375v6.8281h-3.8594v-1.7656c-0.51172 0.71875-1.0898 1.2461-1.7344 1.5781-0.63672 0.33203-1.418 0.5-2.3438 0.5-1.2422 0-2.2461-0.35938-3.0156-1.0781-0.77344-0.72656-1.1562-1.6719-1.1562-2.8281 0-1.3945 0.47656-2.4219 1.4375-3.0781 0.96875-0.65625 2.4883-0.98438 4.5625-0.98438h2.25v-0.29688c0-0.60156-0.24219-1.0469-0.71875-1.3281-0.48047-0.28125-1.2266-0.42188-2.2344-0.42188-0.8125 0-1.5742 0.085937-2.2812 0.25-0.71094 0.15625-1.3672 0.40234-1.9688 0.73438v-2.9219c0.82031-0.19531 1.6445-0.34766 2.4688-0.45312 0.82031-0.10156 1.6484-0.15625 2.4844-0.15625 2.1562 0 3.7109 0.42969 4.6719 1.2812 0.95703 0.84375 1.4375 2.2266 1.4375 4.1406z"/>
  </symbol>
  <symbol id="c" overflow="visible">
   <path d="m6.0156-15.359v3.3906h3.9375v2.7344h-3.9375v5.0781c0 0.55469 0.10938 0.92969 0.32812 1.125 0.21875 0.19922 0.65625 0.29688 1.3125 0.29688h1.9688v2.7344h-3.2812c-1.5117 0-2.5859-0.3125-3.2188-0.9375-0.625-0.63281-0.9375-1.707-0.9375-3.2188v-5.0781h-1.9062v-2.7344h1.9062v-3.3906z"/>
  </symbol>
  <symbol id="k" overflow="visible">
   <path d="m9.9688-10.219v-6.4062h3.8594v16.625h-3.8594v-1.7344c-0.52344 0.71094-1.1016 1.2305-1.7344 1.5625-0.63672 0.32031-1.3711 0.48438-2.2031 0.48438-1.4688 0-2.6797-0.58203-3.625-1.75-0.94922-1.1758-1.4219-2.6875-1.4219-4.5312s0.47266-3.3477 1.4219-4.5156c0.94531-1.1758 2.1562-1.7656 3.625-1.7656 0.83203 0 1.5664 0.16797 2.2031 0.5 0.63281 0.32422 1.2109 0.83594 1.7344 1.5312zm-2.5156 7.75c0.82031 0 1.4453-0.29688 1.875-0.89062 0.42578-0.60156 0.64062-1.4727 0.64062-2.6094 0-1.1445-0.21484-2.0156-0.64062-2.6094-0.42969-0.59375-1.0547-0.89062-1.875-0.89062-0.8125 0-1.4336 0.29688-1.8594 0.89062-0.42969 0.59375-0.64062 1.4648-0.64062 2.6094 0 1.1367 0.21094 2.0078 0.64062 2.6094 0.42578 0.59375 1.0469 0.89062 1.8594 0.89062z"/>
  </symbol>
  <symbol id="j" overflow="visible">
   <path d="m8.2031-2.4688c0.82031 0 1.4453-0.29688 1.875-0.89062 0.42578-0.60156 0.64062-1.4727 0.64062-2.6094 0-1.1445-0.21484-2.0156-0.64062-2.6094-0.42969-0.59375-1.0547-0.89062-1.875-0.89062-0.82422 0-1.4531 0.30469-1.8906 0.90625-0.4375 0.59375-0.65625 1.4609-0.65625 2.5938 0 1.1367 0.21875 2.0078 0.65625 2.6094 0.4375 0.59375 1.0664 0.89062 1.8906 0.89062zm-2.5469-7.75c0.53125-0.69531 1.1133-1.207 1.75-1.5312 0.64453-0.33203 1.3828-0.5 2.2188-0.5 1.4688 0 2.6758 0.58984 3.625 1.7656 0.94531 1.168 1.4219 2.6719 1.4219 4.5156s-0.47656 3.3555-1.4219 4.5312c-0.94922 1.168-2.1562 1.75-3.625 1.75-0.83594 0-1.5742-0.16797-2.2188-0.5-0.63672-0.33203-1.2188-0.84766-1.75-1.5469v1.7344h-3.8125v-16.625h3.8125z"/>
  </symbol>
  <symbol id="i" overflow="visible">
   <path d="m0.26562-11.969h3.8281l3.2188 8.125 2.7344-8.125h3.8125l-5.0312 13.094c-0.5 1.332-1.0898 2.2656-1.7656 2.7969-0.66797 0.53125-1.5547 0.79688-2.6562 0.79688h-2.2188v-2.5h1.2031c0.64453 0 1.1133-0.10547 1.4062-0.3125 0.30078-0.21094 0.53125-0.57812 0.6875-1.1094l0.10938-0.34375z"/>
  </symbol>
  <symbol id="f" overflow="visible">
   <path d="m1.8438-11.969h3.8125v11.969h-3.8125zm0-4.6562h3.8125v3.125h-3.8125z"/>
  </symbol>
  <symbol id="u" overflow="visible">
   <path d="m0.32812-11.969h3.8281l2.9844 8.2656 2.9688-8.2656h3.8281l-4.7031 11.969h-4.2031z"/>
  </symbol>
  <symbol id="t" overflow="visible">
   <path d="m2.0156-15.953h5.2188l3.6406 8.5469 3.6562-8.5469h5.2188v15.953h-3.8906v-11.656l-3.6719 8.5938h-2.6094l-3.6719-8.5938v11.656h-3.8906z"/>
  </symbol>
  <symbol id="g" overflow="visible">
   <path d="m13.859-7.2812v7.2812h-3.8438v-5.5469c0-1.0508-0.027344-1.7695-0.078125-2.1562-0.042969-0.39453-0.12109-0.6875-0.23438-0.875-0.14844-0.25-0.35156-0.44141-0.60938-0.57812-0.25-0.14453-0.54297-0.21875-0.875-0.21875-0.79297 0-1.418 0.3125-1.875 0.9375-0.46094 0.61719-0.6875 1.4648-0.6875 2.5469v5.8906h-3.8125v-16.625h3.8125v6.4062c0.58203-0.69531 1.1953-1.207 1.8438-1.5312 0.64453-0.33203 1.3594-0.5 2.1406-0.5 1.3828 0 2.4297 0.42969 3.1406 1.2812 0.71875 0.84375 1.0781 2.0742 1.0781 3.6875z"/>
  </symbol>
  <symbol id="s" overflow="visible">
   <path d="m9.7031-16.625v2.5156h-2.1094c-0.54297 0-0.92188 0.10156-1.1406 0.29688-0.21094 0.19922-0.3125 0.53906-0.3125 1.0156v0.82812h3.2656v2.7344h-3.2656v9.2344h-3.8281v-9.2344h-1.8906v-2.7344h1.8906v-0.82812c0-1.3008 0.36328-2.2656 1.0938-2.8906 0.72656-0.625 1.8516-0.9375 3.375-0.9375z"/>
  </symbol>
  <symbol id="e" overflow="visible">
   <path d="m7.5312-9.5156c-0.84375 0-1.4922 0.30859-1.9375 0.92188-0.44922 0.60547-0.67188 1.4805-0.67188 2.625 0 1.1484 0.22266 2.0273 0.67188 2.6406 0.44531 0.60547 1.0938 0.90625 1.9375 0.90625 0.83203 0 1.4688-0.30078 1.9062-0.90625 0.44531-0.61328 0.67188-1.4922 0.67188-2.6406 0-1.1445-0.22656-2.0195-0.67188-2.625-0.4375-0.61328-1.0742-0.92188-1.9062-0.92188zm0-2.7344c2.0508 0 3.6562 0.55859 4.8125 1.6719 1.1641 1.1055 1.75 2.6406 1.75 4.6094s-0.58594 3.5117-1.75 4.625c-1.1562 1.1055-2.7617 1.6562-4.8125 1.6562-2.0625 0-3.6797-0.55078-4.8438-1.6562-1.168-1.1133-1.75-2.6562-1.75-4.625s0.58203-3.5039 1.75-4.6094c1.1641-1.1133 2.7812-1.6719 4.8438-1.6719z"/>
  </symbol>
  <symbol id="r" overflow="visible">
   <path d="m12.922-9.9688c0.48828-0.75 1.0625-1.3164 1.7188-1.7031 0.66406-0.38281 1.3984-0.57812 2.2031-0.57812 1.375 0 2.4219 0.42969 3.1406 1.2812 0.71875 0.84375 1.0781 2.0742 1.0781 3.6875v7.2812h-3.8438v-6.2344c0.007812-0.09375 0.015625-0.1875 0.015625-0.28125v-0.4375c0-0.84375-0.125-1.457-0.375-1.8438-0.25-0.38281-0.65234-0.57812-1.2031-0.57812-0.73047 0-1.293 0.30469-1.6875 0.90625-0.38672 0.59375-0.58984 1.4609-0.60938 2.5938v5.875h-3.8438v-6.2344c0-1.3203-0.11719-2.1758-0.34375-2.5625-0.23047-0.38281-0.63672-0.57812-1.2188-0.57812-0.73047 0-1.2969 0.30469-1.7031 0.90625-0.39844 0.60547-0.59375 1.4648-0.59375 2.5781v5.8906h-3.8438v-11.969h3.8438v1.75c0.46875-0.66406 1.0039-1.1719 1.6094-1.5156 0.61328-0.34375 1.2891-0.51562 2.0312-0.51562 0.82031 0 1.5508 0.19922 2.1875 0.59375 0.63281 0.39844 1.1133 0.96094 1.4375 1.6875z"/>
  </symbol>
  <symbol id="q" overflow="visible">
   <path d="m2.0156-15.953h4.5781l5.8125 10.938v-10.938h3.8906v15.953h-4.5938l-5.7969-10.938v10.938h-3.8906z"/>
  </symbol>
  <symbol id="p" overflow="visible">
   <path d="m1.7031-4.6562v-7.3125h3.8438v1.2031c0 0.64844-0.007813 1.4609-0.015625 2.4375v1.9688c0 0.96094 0.023438 1.6523 0.078125 2.0781 0.050781 0.41797 0.13281 0.72656 0.25 0.92188 0.15625 0.25 0.35938 0.44531 0.60938 0.57812 0.25781 0.13672 0.55078 0.20312 0.875 0.20312 0.80078 0 1.4258-0.30469 1.875-0.92188 0.45703-0.61328 0.6875-1.4688 0.6875-2.5625v-5.9062h3.8281v11.969h-3.8281v-1.7344c-0.57422 0.69922-1.1836 1.2148-1.8281 1.5469-0.64844 0.33203-1.3555 0.5-2.125 0.5-1.3867 0-2.4453-0.42188-3.1719-1.2656-0.71875-0.85156-1.0781-2.0859-1.0781-3.7031z"/>
  </symbol>
  <symbol id="o" overflow="visible">
   <path d="m13.859-7.2812v7.2812h-3.8438v-5.5781c0-1.0312-0.027344-1.7383-0.078125-2.125-0.042969-0.39453-0.12109-0.6875-0.23438-0.875-0.14844-0.25-0.35156-0.44141-0.60938-0.57812-0.25-0.14453-0.54297-0.21875-0.875-0.21875-0.79297 0-1.418 0.3125-1.875 0.9375-0.46094 0.61719-0.6875 1.4648-0.6875 2.5469v5.8906h-3.8125v-11.969h3.8125v1.75c0.58203-0.69531 1.1953-1.207 1.8438-1.5312 0.64453-0.33203 1.3594-0.5 2.1406-0.5 1.3828 0 2.4297 0.42969 3.1406 1.2812 0.71875 0.84375 1.0781 2.0742 1.0781 3.6875z"/>
  </symbol>
  <symbol id="n" overflow="visible">
   <path d="m2.0156-15.953h6.8125c2.0312 0 3.5859 0.45312 4.6719 1.3594 1.0938 0.89844 1.6406 2.1797 1.6406 3.8438 0 1.6797-0.54688 2.9688-1.6406 3.875-1.0859 0.89844-2.6406 1.3438-4.6719 1.3438h-2.7031v5.5312h-4.1094zm4.1094 2.9844v4.4531h2.2656c0.80078 0 1.4141-0.19141 1.8438-0.57812 0.4375-0.38281 0.65625-0.9375 0.65625-1.6562 0-0.70703-0.21875-1.2539-0.65625-1.6406-0.42969-0.38281-1.043-0.57812-1.8438-0.57812z"/>
  </symbol>
  <symbol id="m" overflow="visible">
   <path d="m1.8438-11.969h3.8125v11.75c0 1.6016-0.38672 2.8281-1.1562 3.6719-0.76172 0.84375-1.8711 1.2656-3.3281 1.2656h-1.8906v-2.5h0.65625c0.72656 0 1.2266-0.16797 1.5-0.5 0.26953-0.32422 0.40625-0.96875 0.40625-1.9375zm0-4.6562h3.8125v3.125h-3.8125z"/>
  </symbol>
  <symbol id="l" overflow="visible">
   <path d="m11.5-11.594v3.125c-0.52344-0.35156-1.043-0.61328-1.5625-0.78125-0.52344-0.17578-1.0625-0.26562-1.625-0.26562-1.0742 0-1.9062 0.3125-2.5 0.9375s-0.89062 1.4961-0.89062 2.6094c0 1.1172 0.29688 1.9844 0.89062 2.6094s1.4258 0.9375 2.5 0.9375c0.59375 0 1.1562-0.085937 1.6875-0.26562 0.53906-0.17578 1.0391-0.44141 1.5-0.79688v3.125c-0.59375 0.23047-1.1992 0.39453-1.8125 0.5-0.61719 0.11328-1.2344 0.17188-1.8594 0.17188-2.1562 0-3.8438-0.55078-5.0625-1.6562-1.2188-1.1133-1.8281-2.6562-1.8281-4.625s0.60938-3.5039 1.8281-4.6094c1.2188-1.1133 2.9062-1.6719 5.0625-1.6719 0.625 0 1.2383 0.058594 1.8438 0.17188 0.61328 0.10547 1.2227 0.26562 1.8281 0.48438z"/>
  </symbol>
 </defs>
 <g>
  <path d="m86.262 368.44c0.57422 0.18359 1.1367 0.36328 1.6602 0.55469l1.6914 0.60156c2.5898 0.72656 5.043 1.8672 7.2695 3.375-0.72266 3.7344-1.9844 7.3438-3.7383 10.719-3.9141 8.7617-9.8281 22.004 1.1875 30.539 1.5859 1.1914 3.4102 2.0312 5.3438 2.4648-1.5273 2.2656-2.3242 4.9453-2.2891 7.6758 0.28516 9.9453 10.52 12.102 14.633 12.906-0.089843 2.6914-0.58594 6.5742-0.97266 9.6719-2.043 10.777-1.918 21.848 0.375 32.574 2.1562 7.0898 6.5859 13.273 12.602 17.598 6.4766 4.6445 14.27 7.0938 22.234 6.9844 1.2578 0 2.5312-0.054687 3.8008-0.17187l0.003906 0.003906c33.191-3.4492 65.285-13.871 94.168-30.586 1.7148 28.691-2.2617 50.703-20.844 72.18v-0.003906c-2.2422 2.5898-2.7656 6.25-1.3438 9.3633 1.4258 3.1172 4.5352 5.1133 7.9609 5.1133h192.88c3.8711 0 7.2852-2.543 8.3867-6.2539 1.1055-3.7109-0.35938-7.707-3.6016-9.8242-16.938-11.066-25.121-29.855-24.324-55.844h0.003906c0.14844-4.832-3.6484-8.8672-8.4766-9.0156-0.09375-0.003906-0.18359-0.003906-0.27344-0.003906-4.7266 0.003906-8.5977 3.7578-8.7422 8.4805-0.68359 22.207 4.4648 40.824 15.035 54.961h-153.59c14.598-23.707 16.473-48.812 13.699-79.352 16.129-11.234 23.859-22.711 22.949-34.195v-0.003906c-0.38672-4.8164-4.6055-8.4102-9.4219-8.0273-4.8164 0.38672-8.4141 4.6016-8.0273 9.4219 0.34766 4.3125-5.5781 13.051-23.535 23.57l-1.293 0.78516h-0.003906c-28.277 17.441-60.113 28.309-93.152 31.801-4.9648 0.58984-9.9766-0.64062-14.105-3.4648-2.9062-2.0273-5.0742-4.9492-6.168-8.3203-1.5469-8.457-1.4961-17.133 0.16016-25.566 1.1055-8.7227 1.9766-15.617-0.35156-21.223-1.6523-3.5859-4.9141-6.168-8.7812-6.9531 3.8789-3.0352 5.8789-7.8906 5.2656-12.777-1.6875-7.8711-9.7852-8.0352-15.141-8.1445-1-0.019531-2.5195-0.050781-3.7695-0.13672 0.90625-3.1211 2.0781-6.1602 3.4922-9.0859 3.8125-8.5352 9.5703-21.43-0.085938-30.453h0.003906c-3.9688-3.3555-8.5977-5.8359-13.59-7.2773l-1.5625-0.55859c-0.71484-0.25781-1.4648-0.50391-2.2344-0.75v-0.003906c-1.4609-0.35156-2.8594-0.92188-4.1484-1.6992-0.015625-0.26953 0.035156-0.53906 0.14844-0.78516 3.1094-6.3477 7.0586-12.242 11.746-17.527 5.2617-6.3008 10.004-13.016 14.184-20.074 0.87891-1.5508 1.793-3.125 2.7188-4.7109 7.4141-12.762 15.82-27.227 13.031-42.293v-0.003906c-4.6172-21.68-1.9727-44.273 7.5273-64.301 32.543-70.543 96.766-88.172 122.87-92.473 11.762-1.9297 23.66-2.9062 35.582-2.918h0.22266c3.0117 0 6 0.078125 8.9766 0.19141l-17.512-17.512v-0.003907c-10.094 0.35156-20.148 1.3438-30.113 2.9727-28.855 4.7578-99.859 24.27-135.91 102.41h-0.003906c-10.969 23.324-14.074 49.578-8.8438 74.816 1.6094 8.6953-4.7773 19.688-10.953 30.32-0.95312 1.6406-1.9023 3.2695-2.8125 4.8789-3.7344 6.2617-7.9648 12.211-12.645 17.801-5.75 6.5352-10.539 13.855-14.23 21.738-2.375 5.4648-1.9062 11.746 1.2539 16.801 3.2695 4.5391 8.0742 7.7461 13.527 9.0234z"/>
  <path d="m447.54 436.86v-69.555c0-4.832-3.918-8.75-8.75-8.75-4.832 0-8.75 3.918-8.75 8.75v69.555c0 4.832 3.918 8.75 8.75 8.75 4.832 0 8.75-3.918 8.75-8.75z"/>
  <path d="m402.84 109.77c-4.7578-2.9375-10.238-4.4922-15.832-4.4961h-6.1289c-8.0625 0.011718-15.793 3.2148-21.492 8.918-5.6992 5.6992-8.9062 13.43-8.918 21.488v33.141h-0.40625v0.003906c-6.7617 0.11328-13.203 2.9062-17.91 7.7617-4.707 4.8555-7.293 11.383-7.1992 18.145v97.59c-0.0625 12.602 5.3203 24.613 14.766 32.949l37.27 32.57c1.2266 1.1562 1.8555 2.8086 1.7109 4.4883l-0.054688 78.098v-0.003907c-0.003906 2.3203 0.91797 4.5469 2.5586 6.1914 1.6406 1.6406 3.8633 2.5625 6.1836 2.5625h0.007812c4.8281 0 8.7461-3.9141 8.75-8.7461l0.050781-77.777v0.003906c0.29297-6.8516-2.5352-13.469-7.6875-17.992l-37.273-32.57c-5.6406-5.0156-8.8438-12.223-8.7812-19.77v-97.594c-0.20312-4.418 3.1953-8.1719 7.6094-8.4062h67.832c4.6914 0.035156 9.1914 1.8594 12.586 5.0938 3.3945 3.2383 5.4336 7.6445 5.6953 12.328 0.36328 5.3477-1.4883 10.613-5.1172 14.559-3.1562 3.4375-7.6055 5.4023-12.273 5.418h-32.723c-4.832 0-8.75 3.918-8.75 8.75v30.887c0 4.832 3.918 8.75 8.75 8.75h25.098c6.2656 0.28125 11.133 5.5703 10.887 11.84v24.02c0 4.832 3.918 8.75 8.75 8.75s8.75-3.918 8.75-8.75v-24.02c0.11328-7.6523-2.8086-15.039-8.1289-20.539-5.3203-5.5-12.605-8.6641-20.258-8.8008h-16.348v-13.387h23.973c9.5 0 18.566-3.9609 25.02-10.93 4.4961-4.8281 7.6016-10.777 8.9922-17.227 2.5977 5.0898 6.5508 9.3633 11.422 12.352 4.8711 2.9844 10.473 4.5703 16.184 4.5781h4.875c6.4023 0 12.641-1.9883 17.859-5.6953 4.9141 7.5977 13.34 12.191 22.391 12.199h1.1719-0.003907c2.8359-0.003906 5.6523-0.46094 8.3398-1.3555v69.059c0.027344 5.6602-2.0195 11.137-5.7578 15.387l-33.738 36.359c-3.6445 4.0742-5.6602 9.3516-5.6641 14.82v70.527-0.003906c0 4.832 3.918 8.75 8.75 8.75s8.75-3.918 8.75-8.75v-70.523c-0.003906-1.1172 0.38672-2.1953 1.1094-3.0469l33.73-36.352c6.6641-7.4766 10.34-17.148 10.32-27.168v-87.785c0.56641-2.1641 0.85938-4.3945 0.86719-6.6328v-52.617c-0.007813-7.082-2.8242-13.871-7.8281-18.879-5.0078-5.0078-11.797-7.8242-18.879-7.832h-1.1719 0.003906c-3.2578 0.003906-6.4805 0.60937-9.5156 1.7812-1.0078-7.4414-4.6719-14.266-10.324-19.215-5.6484-4.9453-12.898-7.6758-20.41-7.6914h-4.875c-5.7734 0.003906-11.434 1.6328-16.332 4.6953-2.5859-5.1992-6.5742-9.5781-11.512-12.641-4.9375-3.0664-10.633-4.6914-16.441-4.6992h-5.4453c-5.7617 0.007813-11.41 1.6055-16.32 4.6211-4.9141 3.0156-8.8945 7.3281-11.512 12.461zm-34.871 25.91c0.007812-7.125 5.7812-12.898 12.91-12.906h6.1289c5.7969 0.019531 10.867 3.9023 12.395 9.4922v36.555l-31.434 0.003906zm157.55 12.273h1.1719v0.003907c5.0859 0.003906 9.2031 4.125 9.207 9.2109v51.453c-0.5625 1.168-0.85938 2.4414-0.86719 3.7383v1.2734c-1.4961 3.2617-4.75 5.3555-8.3398 5.3672h-1.1719 0.003906c-5.0859-0.007812-9.2031-4.1289-9.207-9.2148v-52.617c0.003907-5.0859 4.1211-9.207 9.207-9.2109zm-45.121-25.121h4.875c7.4766 0.011718 13.531 6.0664 13.543 13.543v62.582c-0.011718 7.4727-6.0664 13.527-13.543 13.539h-4.875c-7.4727-0.011719-13.527-6.0664-13.535-13.539v-7.2266c0.34375-1.8633 0.51953-3.7578 0.51953-5.6523v-53.207c1.5703-5.9023 6.9102-10.016 13.016-10.039zm-30.52 1.125v6.918h0.003907c-0.33594 1.8125-0.50781 3.6523-0.51953 5.5v51.402c-3.043-5.707-7.5781-10.484-13.121-13.82-5.5391-3.3398-11.883-5.1133-18.352-5.1328h-0.47266v-33.141l-0.003906-0.003906c-0.007813-1.8281-0.17969-3.6523-0.51562-5.4531v-6.2695c0.007812-7.6016 6.168-13.762 13.77-13.77h5.4453c7.6016 0.007813 13.758 6.168 13.77 13.77z"/>
  <path d="m432.36 8.75v26.25c0 4.832 3.918 8.75 8.75 8.75s8.75-3.918 8.75-8.75v-26.25c0-4.832-3.918-8.75-8.75-8.75s-8.75 3.918-8.75 8.75z"/>
  <path d="m330.9 82.086-20.398-20.398v0.003906c-1.6367-1.6484-3.8672-2.5781-6.1914-2.582-2.3242 0-4.5547 0.92188-6.1953 2.5625-1.6445 1.6445-2.5664 3.875-2.5625 6.1992 0 2.3242 0.92969 4.5547 2.5781 6.1914l20.398 20.398h-0.003906c3.4219 3.4062 8.9492 3.3984 12.363-0.011719 3.4102-3.4141 3.418-8.9453 0.011719-12.363z"/>
  <path d="m256.75 187.35c-4.832 0-8.75 3.918-8.75 8.75 0 4.832 3.918 8.75 8.75 8.75h28.848c4.832 0 8.75-3.918 8.75-8.75 0-4.832-3.918-8.75-8.75-8.75z"/>
  <path d="m621.25 183.75h-26.25c-4.832 0-8.75 3.918-8.75 8.75s3.918 8.75 8.75 8.75h26.25c4.832 0 8.75-3.918 8.75-8.75s-3.918-8.75-8.75-8.75z"/>
  <path d="m570.49 59.688c-1.6406-1.6406-3.8633-2.5664-6.1836-2.5664-2.3242 0-4.5469 0.92578-6.1875 2.5664l-20.398 20.398v-0.003907c-1.6406 1.6406-2.5625 3.8672-2.5625 6.1875 0 2.3203 0.92188 4.5469 2.5625 6.1875s3.8672 2.5625 6.1875 2.5625c2.3203 0 4.5469-0.92188 6.1875-2.5625l20.398-20.398h-0.003906c1.6406-1.6406 2.5664-3.8633 2.5664-6.1875 0-2.3203-0.92578-4.543-2.5664-6.1836z"/>

 </g>
</svg>
