<?xml version="1.0" encoding="UTF-8"?>
<svg width="700pt" height="700pt" version="1.1" viewBox="0 0 700 700" xmlns="http://www.w3.org/2000/svg" xmlns:xlink="http://www.w3.org/1999/xlink">
 <defs>
  <symbol id="v" overflow="visible">
   <path d="m19.547-1.1719c-1.0117 0.52344-2.0625 0.91406-3.1562 1.1719-1.0938 0.26953-2.2344 0.40625-3.4219 0.40625-3.543 0-6.3516-0.98828-8.4219-2.9688-2.0625-1.9766-3.0938-4.6602-3.0938-8.0469 0-3.4062 1.0312-6.0977 3.0938-8.0781 2.0703-1.9766 4.8789-2.9688 8.4219-2.9688 1.1875 0 2.3281 0.13672 3.4219 0.40625 1.0938 0.26172 2.1445 0.65625 3.1562 1.1875v4.3906c-1.0234-0.6875-2.0273-1.1914-3.0156-1.5156-0.98047-0.32031-2.0156-0.48438-3.1094-0.48438-1.9609 0-3.5 0.625-4.625 1.875-1.1172 1.25-1.6719 2.9805-1.6719 5.1875 0 2.1875 0.55469 3.9141 1.6719 5.1719 1.125 1.25 2.6641 1.875 4.625 1.875 1.0938 0 2.1289-0.16016 3.1094-0.48438 0.98828-0.32031 1.9922-0.82812 3.0156-1.5156z"/>
  </symbol>
  <symbol id="b" overflow="visible">
   <path d="m14.297-11.609c-0.44922-0.20703-0.89062-0.35938-1.3281-0.45312-0.4375-0.10156-0.88281-0.15625-1.3281-0.15625-1.3125 0-2.3242 0.42188-3.0312 1.2656-0.71094 0.83594-1.0625 2.0391-1.0625 3.6094v7.3438h-5.0938v-15.953h5.0938v2.625c0.65625-1.0508 1.4062-1.8164 2.25-2.2969 0.85156-0.47656 1.875-0.71875 3.0625-0.71875 0.17578 0 0.36328 0.011719 0.5625 0.03125 0.19531 0.011719 0.48438 0.042969 0.85938 0.09375z"/>
  </symbol>
  <symbol id="a" overflow="visible">
   <path d="m18.375-8.0156v1.4531h-11.922c0.125 1.1992 0.55469 2.0938 1.2969 2.6875 0.73828 0.59375 1.7734 0.89062 3.1094 0.89062 1.0703 0 2.1719-0.15625 3.2969-0.46875 1.125-0.32031 2.2812-0.80469 3.4688-1.4531v3.9375c-1.2109 0.46094-2.418 0.80469-3.625 1.0312-1.2109 0.22656-2.4141 0.34375-3.6094 0.34375-2.8984 0-5.1484-0.72656-6.75-2.1875-1.5938-1.4688-2.3906-3.5312-2.3906-6.1875 0-2.5938 0.78516-4.6328 2.3594-6.125 1.5703-1.5 3.7344-2.25 6.4844-2.25 2.5078 0 4.5156 0.75781 6.0156 2.2656 1.5078 1.5117 2.2656 3.5312 2.2656 6.0625zm-5.2344-1.7031c0-0.96875-0.28906-1.75-0.85938-2.3438-0.5625-0.59375-1.2969-0.89062-2.2031-0.89062-0.99219 0-1.7969 0.28125-2.4219 0.84375-0.61719 0.55469-0.99609 1.3516-1.1406 2.3906z"/>
  </symbol>
  <symbol id="e" overflow="visible">
   <path d="m9.5938-7.1719c-1.0625 0-1.8672 0.18359-2.4062 0.54688-0.53125 0.35547-0.79688 0.88281-0.79688 1.5781 0 0.64844 0.21094 1.1523 0.64062 1.5156 0.4375 0.36719 1.0391 0.54688 1.8125 0.54688 0.95703 0 1.7656-0.34375 2.4219-1.0312s0.98438-1.5469 0.98438-2.5781v-0.57812zm7.7969-1.9375v9.1094h-5.1406v-2.3594c-0.6875 0.96875-1.4609 1.6719-2.3125 2.1094-0.85547 0.4375-1.8906 0.65625-3.1094 0.65625-1.6562 0-3-0.47656-4.0312-1.4375-1.0312-0.96875-1.5469-2.2188-1.5469-3.75 0-1.875 0.64062-3.25 1.9219-4.125 1.2891-0.875 3.3164-1.3125 6.0781-1.3125h3v-0.39062c0-0.8125-0.32031-1.4062-0.95312-1.7812-0.63672-0.375-1.6328-0.5625-2.9844-0.5625-1.0859 0-2.1016 0.10938-3.0469 0.32812-0.9375 0.21875-1.8086 0.54688-2.6094 0.98438v-3.8906c1.082-0.25781 2.1758-0.45703 3.2812-0.59375 1.1016-0.14453 2.207-0.21875 3.3125-0.21875 2.875 0 4.9453 0.57031 6.2188 1.7031 1.2812 1.1367 1.9219 2.9805 1.9219 5.5312z"/>
  </symbol>
  <symbol id="d" overflow="visible">
   <path d="m8.0156-20.484v4.5312h5.2656v3.6406h-5.2656v6.7656c0 0.74219 0.14453 1.2461 0.4375 1.5156 0.30078 0.26172 0.89062 0.39062 1.7656 0.39062h2.6094v3.6406h-4.3594c-2.0234 0-3.4531-0.41406-4.2969-1.25-0.83594-0.84375-1.25-2.2734-1.25-4.2969v-6.7656h-2.5312v-3.6406h2.5312v-4.5312z"/>
  </symbol>
  <symbol id="j" overflow="visible">
   <path d="m13.297-13.625v-8.5312h5.1406v22.156h-5.1406v-2.3125c-0.69922 0.94922-1.4688 1.6406-2.3125 2.0781-0.84375 0.42578-1.8242 0.64062-2.9375 0.64062-1.9688 0-3.5859-0.77344-4.8438-2.3281-1.2617-1.5625-1.8906-3.5781-1.8906-6.0469 0-2.457 0.62891-4.4688 1.8906-6.0312 1.2578-1.5625 2.875-2.3438 4.8438-2.3438 1.1016 0 2.0781 0.22656 2.9219 0.67188 0.85156 0.4375 1.6289 1.1211 2.3281 2.0469zm-3.3594 10.328c1.0938 0 1.9258-0.39453 2.5-1.1875 0.57031-0.80078 0.85938-1.9609 0.85938-3.4844 0-1.5078-0.28906-2.6641-0.85938-3.4688-0.57422-0.80078-1.4062-1.2031-2.5-1.2031-1.0859 0-1.9141 0.40234-2.4844 1.2031-0.57422 0.80469-0.85938 1.9609-0.85938 3.4688 0 1.5234 0.28516 2.6836 0.85938 3.4844 0.57031 0.79297 1.3984 1.1875 2.4844 1.1875z"/>
  </symbol>
  <symbol id="i" overflow="visible">
   <path d="m10.938-3.2969c1.0938 0 1.9258-0.39453 2.5-1.1875 0.57031-0.80078 0.85938-1.9609 0.85938-3.4844 0-1.5078-0.28906-2.6641-0.85938-3.4688-0.57422-0.80078-1.4062-1.2031-2.5-1.2031s-1.9336 0.40234-2.5156 1.2031c-0.58594 0.80469-0.875 1.9609-0.875 3.4688 0 1.5117 0.28906 2.668 0.875 3.4688 0.58203 0.80469 1.4219 1.2031 2.5156 1.2031zm-3.3906-10.328c0.70703-0.92578 1.4883-1.6094 2.3438-2.0469 0.85156-0.44531 1.832-0.67188 2.9375-0.67188 1.9688 0 3.582 0.78125 4.8438 2.3438 1.2695 1.5625 1.9062 3.5742 1.9062 6.0312 0 2.4688-0.63672 4.4844-1.9062 6.0469-1.2617 1.5547-2.875 2.3281-4.8438 2.3281-1.1055 0-2.0859-0.21875-2.9375-0.65625-0.85547-0.4375-1.6367-1.125-2.3438-2.0625v2.3125h-5.0938v-22.156h5.0938z"/>
  </symbol>
  <symbol id="h" overflow="visible">
   <path d="m0.35938-15.953h5.0938l4.2969 10.828 3.6406-10.828h5.0938l-6.7031 17.469c-0.67969 1.7695-1.4648 3.0078-2.3594 3.7188-0.89844 0.70703-2.0781 1.0625-3.5469 1.0625h-2.9531v-3.3438h1.5938c0.86328 0 1.4922-0.14062 1.8906-0.42188 0.39453-0.27344 0.70312-0.76562 0.92188-1.4844l0.14062-0.4375z"/>
  </symbol>
  <symbol id="f" overflow="visible">
   <path d="m12.953-22.156v3.3438h-2.8281c-0.71875 0-1.2266 0.13281-1.5156 0.39062-0.28125 0.26172-0.42188 0.71484-0.42188 1.3594v1.1094h4.3594v3.6406h-4.3594v12.312h-5.0938v-12.312h-2.5312v-3.6406h2.5312v-1.1094c0-1.7383 0.48438-3.0195 1.4531-3.8438 0.96875-0.83203 2.4688-1.25 4.5-1.25z"/>
  </symbol>
  <symbol id="u" overflow="visible">
   <path d="m2.4531-15.953h5.0938v15.953h-5.0938zm0-6.2031h5.0938v4.1562h-5.0938z"/>
  </symbol>
  <symbol id="g" overflow="visible">
   <path d="m14.906-15.453v3.875c-1.0859-0.45703-2.1367-0.80078-3.1562-1.0312-1.0117-0.22656-1.9688-0.34375-2.875-0.34375-0.96875 0-1.6875 0.125-2.1562 0.375-0.46875 0.24219-0.70312 0.60938-0.70312 1.1094 0 0.40625 0.17578 0.71875 0.53125 0.9375 0.35156 0.21875 0.99219 0.38281 1.9219 0.48438l0.89062 0.14062c2.6133 0.32422 4.3672 0.86719 5.2656 1.625 0.90625 0.76172 1.3594 1.9531 1.3594 3.5781 0 1.6992-0.63281 2.9766-1.8906 3.8281-1.25 0.85547-3.1211 1.2812-5.6094 1.2812-1.0547 0-2.1406-0.085938-3.2656-0.25-1.125-0.15625-2.2812-0.39844-3.4688-0.73438v-3.875c1.0195 0.49219 2.0625 0.85938 3.125 1.1094 1.0703 0.24219 2.1602 0.35938 3.2656 0.35938 0.98828 0 1.7344-0.13281 2.2344-0.40625 0.50781-0.26953 0.76562-0.67578 0.76562-1.2188 0-0.45703-0.17969-0.79688-0.53125-1.0156-0.34375-0.22656-1.0312-0.40625-2.0625-0.53125l-0.89062-0.10938c-2.2734-0.28125-3.8672-0.80469-4.7812-1.5781-0.90625-0.76953-1.3594-1.9414-1.3594-3.5156 0-1.6875 0.57812-2.9375 1.7344-3.75 1.1562-0.82031 2.9297-1.2344 5.3281-1.2344 0.9375 0 1.9219 0.074219 2.9531 0.21875 1.0391 0.14844 2.1641 0.37109 3.375 0.67188z"/>
  </symbol>
  <symbol id="t" overflow="visible">
   <path d="m2.4531-22.156h5.0938v22.156h-5.0938z"/>
  </symbol>
  <symbol id="c" overflow="visible">
   <path d="m10.047-12.688c-1.1367 0-2 0.40625-2.5938 1.2188s-0.89062 1.9805-0.89062 3.5c0 1.5312 0.29688 2.7031 0.89062 3.5156s1.457 1.2188 2.5938 1.2188c1.1016 0 1.9453-0.40625 2.5312-1.2188 0.59375-0.8125 0.89062-1.9844 0.89062-3.5156 0-1.5195-0.29688-2.6875-0.89062-3.5-0.58594-0.8125-1.4297-1.2188-2.5312-1.2188zm0-3.6562c2.7383 0 4.8789 0.74609 6.4219 2.2344 1.5391 1.4805 2.3125 3.5273 2.3125 6.1406 0 2.625-0.77344 4.6797-2.3125 6.1562-1.543 1.4805-3.6836 2.2188-6.4219 2.2188-2.7617 0-4.918-0.73828-6.4688-2.2188-1.5547-1.4766-2.3281-3.5312-2.3281-6.1562 0-2.6133 0.77344-4.6602 2.3281-6.1406 1.5508-1.4883 3.707-2.2344 6.4688-2.2344z"/>
  </symbol>
  <symbol id="s" overflow="visible">
   <path d="m0.4375-15.953h5.1094l3.9688 11.031 3.9531-11.031h5.125l-6.2812 15.953h-5.6094z"/>
  </symbol>
  <symbol id="r" overflow="visible">
   <path d="m17.234-13.297c0.64453-0.98828 1.4102-1.7422 2.2969-2.2656 0.89453-0.51953 1.875-0.78125 2.9375-0.78125 1.832 0 3.2266 0.57031 4.1875 1.7031 0.95703 1.125 1.4375 2.7656 1.4375 4.9219v9.7188h-5.125v-8.3125-0.39062c0.007812-0.13281 0.015625-0.32031 0.015625-0.5625 0-1.1328-0.16797-1.9531-0.5-2.4531-0.32422-0.50781-0.85938-0.76562-1.6094-0.76562-0.96875 0-1.7188 0.40234-2.25 1.2031-0.52344 0.79297-0.79297 1.9453-0.8125 3.4531v7.8281h-5.125v-8.3125c0-1.7695-0.15234-2.9062-0.45312-3.4062-0.30469-0.50781-0.84375-0.76562-1.625-0.76562-0.98047 0-1.7344 0.40234-2.2656 1.2031-0.53125 0.80469-0.79688 1.9492-0.79688 3.4375v7.8438h-5.125v-15.953h5.125v2.3281c0.625-0.89453 1.3438-1.5703 2.1562-2.0312 0.8125-0.45703 1.707-0.6875 2.6875-0.6875 1.1016 0 2.0781 0.26562 2.9219 0.79688s1.4844 1.2812 1.9219 2.25z"/>
  </symbol>
  <symbol id="q" overflow="visible">
   <path d="m18.484-9.7188v9.7188h-5.125v-7.4062c0-1.3945-0.03125-2.3516-0.09375-2.875-0.0625-0.51953-0.16797-0.90625-0.3125-1.1562-0.19922-0.33203-0.46875-0.58594-0.8125-0.76562-0.34375-0.1875-0.73438-0.28125-1.1719-0.28125-1.0625 0-1.9023 0.41406-2.5156 1.2344-0.60547 0.8125-0.90625 1.9492-0.90625 3.4062v7.8438h-5.0938v-22.156h5.0938v8.5312c0.76953-0.92578 1.5859-1.6094 2.4531-2.0469 0.86328-0.44531 1.8164-0.67188 2.8594-0.67188 1.8438 0 3.2383 0.57031 4.1875 1.7031 0.95703 1.125 1.4375 2.7656 1.4375 4.9219z"/>
  </symbol>
  <symbol id="p" overflow="visible">
   <path d="m2.6719-21.266h6.125l7.7344 14.578v-14.578h5.2031v21.266h-6.125l-7.7344-14.594v14.594h-5.2031z"/>
  </symbol>
  <symbol id="o" overflow="visible">
   <path d="m2.2812-6.2031v-9.75h5.125v1.5938c0 0.86719-0.007812 1.9531-0.015625 3.2656-0.011719 1.3047-0.015625 2.1719-0.015625 2.6094 0 1.2812 0.03125 2.2031 0.09375 2.7656 0.070312 0.5625 0.1875 0.97656 0.34375 1.2344 0.21875 0.33594 0.49219 0.58984 0.82812 0.76562 0.33203 0.17969 0.71875 0.26562 1.1562 0.26562 1.0625 0 1.8945-0.40625 2.5-1.2188 0.61328-0.8125 0.92188-1.9453 0.92188-3.4062v-7.875h5.0938v15.953h-5.0938v-2.3125c-0.77344 0.9375-1.5898 1.625-2.4531 2.0625-0.85547 0.4375-1.7969 0.65625-2.8281 0.65625-1.8438 0-3.25-0.5625-4.2188-1.6875-0.96094-1.1328-1.4375-2.7734-1.4375-4.9219z"/>
  </symbol>
  <symbol id="n" overflow="visible">
   <path d="m18.484-9.7188v9.7188h-5.125v-7.4375c0-1.375-0.03125-2.3203-0.09375-2.8438-0.0625-0.51953-0.16797-0.90625-0.3125-1.1562-0.19922-0.33203-0.46875-0.58594-0.8125-0.76562-0.34375-0.1875-0.73438-0.28125-1.1719-0.28125-1.0625 0-1.9023 0.41406-2.5156 1.2344-0.60547 0.8125-0.90625 1.9492-0.90625 3.4062v7.8438h-5.0938v-15.953h5.0938v2.3281c0.76953-0.92578 1.5859-1.6094 2.4531-2.0469 0.86328-0.44531 1.8164-0.67188 2.8594-0.67188 1.8438 0 3.2383 0.57031 4.1875 1.7031 0.95703 1.125 1.4375 2.7656 1.4375 4.9219z"/>
  </symbol>
  <symbol id="m" overflow="visible">
   <path d="m2.6719-21.266h9.1094c2.707 0 4.7852 0.60547 6.2344 1.8125 1.4453 1.1992 2.1719 2.9062 2.1719 5.125 0 2.2305-0.72656 3.9492-2.1719 5.1562-1.4492 1.1992-3.5273 1.7969-6.2344 1.7969h-3.625v7.375h-5.4844zm5.4844 3.9688v5.9375h3.0469c1.0625 0 1.8789-0.25391 2.4531-0.76562 0.58203-0.51953 0.875-1.2539 0.875-2.2031 0-0.94531-0.29297-1.6758-0.875-2.1875-0.57422-0.51953-1.3906-0.78125-2.4531-0.78125z"/>
  </symbol>
  <symbol id="l" overflow="visible">
   <path d="m2.4531-15.953h5.0938v15.672c0 2.1328-0.51562 3.7656-1.5469 4.8906-1.0234 1.125-2.5078 1.6875-4.4531 1.6875h-2.5156v-3.3438h0.89062c0.96875 0 1.6289-0.21875 1.9844-0.65625 0.36328-0.4375 0.54688-1.2969 0.54688-2.5781zm0-6.2031h5.0938v4.1562h-5.0938z"/>
  </symbol>
  <symbol id="k" overflow="visible">
   <path d="m15.344-15.453v4.1562c-0.69922-0.46875-1.3984-0.81641-2.0938-1.0469-0.69922-0.22656-1.4219-0.34375-2.1719-0.34375-1.4297 0-2.5391 0.41797-3.3281 1.25-0.79297 0.82422-1.1875 1.9805-1.1875 3.4688 0 1.5 0.39453 2.668 1.1875 3.5 0.78906 0.82422 1.8984 1.2344 3.3281 1.2344 0.80078 0 1.5547-0.11719 2.2656-0.35938 0.71875-0.23828 1.3828-0.58594 2-1.0469v4.1719c-0.80469 0.29297-1.6172 0.50781-2.4375 0.65625-0.8125 0.14453-1.6367 0.21875-2.4688 0.21875-2.875 0-5.125-0.73438-6.75-2.2031-1.625-1.4766-2.4375-3.5352-2.4375-6.1719 0-2.625 0.8125-4.6758 2.4375-6.1562 1.625-1.4766 3.875-2.2188 6.75-2.2188 0.83203 0 1.6562 0.078125 2.4688 0.23438 0.8125 0.14844 1.625 0.36719 2.4375 0.65625z"/>
  </symbol>
 </defs>
 <g>
  <path d="m410.29 108.57c83.5 39.645 175.51 124.2 156.78 225.75-17.141 92.895-131.9 168-220.61 175.08-82.512 6.5859-190.43-54.855-212.89-137.34-13.895-51 5.9805-112.5 29.055-157.7 24.062-47.133 65.852-100.13 124.66-90.254 4.5977 0.76953 6.5664-6.2539 1.9375-7.0273-106.75-17.922-161 133.36-166.41 215.87-6.3945 97.516 100.86 172.68 188.82 182.39 103.74 11.438 222.12-65.262 257.98-162.81 39.68-107.94-68.18-208.71-155.64-250.25-4.2227-2.0117-7.9297 4.2773-3.6797 6.2891z"/>
  <path d="m347.61 112.96c-10.426 10.715-58.137 21.512-52.547-7.375 2.5664-13.266 25.668-20.441 36.285-23.562 22.801-6.707 42.34 3.2852 46.98 26.961 4.0664 20.742-5.25 44.191-17.875 60.246-6.8672 8.7266-16.055 15.074-26.648 18.281-10.301 3.1133-62.098-6.5898-40.441-30.211 3.168-3.4609-1.9766-8.6289-5.1641-5.1562-15.273 16.652-1.0273 32.258 16.094 39.836 16 7.0742 33.344 4.2891 47.684-5 27.512-17.828 42.531-61.535 29.773-91.969-14.859-35.422-61.727-22.168-84.789-3.9609-13.031 10.297-11.281 24.289 0.09375 34.648 14.648 13.348 43.582 4.8984 55.727-7.582 3.2617-3.3711-1.8906-8.5273-5.1719-5.1562z"/>
  <path d="m302.01 88.992c-0.55859-27.465 24.047-37.227 47.484-38.645 34.48-2.0898 55.859 23.02 57.352 56.402 1.0898 24.289-20.348 57.469-2.707 79.309 10.402 12.879 46.125 6.6836 46.875-12.145 0.74609-18.562-15.41-28.379-30.094-16.719-3.6797 2.9219 1.5156 8.043 5.1641 5.1562 5.75 1.6914 11.508 3.3789 17.262 5.0625-6.5469 14.461-16.113 19.949-28.688 16.461-14.039-2.6211-9.5898-24.23-8.1133-32.375 1.8438-10.18 5.5469-20.016 6.6133-30.34 2.8984-28.059-3.0234-54.676-28.152-70.508-31.805-20.031-91.145-4.2695-90.289 38.332 0.10156 4.7031 7.3945 4.7148 7.293 0.007813z"/>
  <path d="m270.61 229.25c-10.238-11.363-31.285-10.953-44.52-5.2031-14.141 6.1484-21.035 17.828-22.324 32.898-2.2812 26.613 16.707 59.91 45.051 61.797 24.43 1.6289 48.891-18.34 57.02-40.289 4.3164-11.648 1.6055-24.16-5.7031-33.863-7.3516-9.7578-24.668-21.465-37.164-21.465-4.7031 0-4.7031 7.293 0 7.293 9.7188 0 23.055 9.9219 29.641 16.527 7.3281 7.3516 9.2344 17.551 6.8789 27.352-4.3398 18.031-22.727 31.484-39.762 36.02-24.676 6.5664-39.91-14.426-46.449-35.473-3.7695-12.129-3.4961-26.289 4.6797-36.551 9.4258-11.84 36.941-15.609 47.5-3.8867 3.1445 3.5 8.2852-1.6719 5.1523-5.1562z"/>
  <path d="m438.67 220.6c-31.477-2.3086-45.898 24.336-43.754 52.793 2.3789 31.664 24.266 52.496 55.738 51.781 28.66-0.64844 45.941-25.094 43.859-52.184-2.6602-34.645-33.75-54.191-65.957-54.922-4.707-0.10938-4.6953 7.1875 0 7.293 27.727 0.62891 50.895 14.684 57.797 42.441 5.6055 22.539-6.707 44.031-29.289 49.297-61.586 14.383-76.508-93.477-18.395-89.207 4.6953 0.34375 4.6602-6.9531 0-7.293z"/>
  <path d="m441.88 257.75c-5.9961 3.2188-11.566 12.254-3.5391 16.73 5.8555 3.2656 13.078 1.5508 15.09-5.0859 1.2031-3.9766 0.61719-10.668-3.2539-13.113-6.7383-4.2539-9.293 7.1406-9.9688 11.23-0.48438 2.918 2.3984 6.0039 5.3555 4.1172 2.8047-1.7891 9.6016-4.0664 9.3867-8.2031-0.22656-4.3594-5.0156-5.7969-7.4961-2.1602-1.375 2.0195-2.457 4.7188-2.8711 7.1328-0.73047 4.2656 3.3945 6.9297 6.7773 3.9258-2.0352-0.53516-4.0664-1.0742-6.0977-1.6094 0.011719 0.050781 0.027343 0.10547 0.039062 0.15234 0.42188 1.5 1.9023 2.7656 3.5156 2.6758 3.1836-0.16797 5.0234-3.793 5.9727-6.457 0.48828-1.3711 0.60156-2.8633-0.16406-4.1641-1.3477-2.3086-3.7578-1.8086-5.957-1.5273-2.9688 0.36719-6.3125 0.45312-8.1953 3.1484-1.918 2.7539-0.69531 6.9609-0.26953 9.9648 0.35547 2.5039 3.4844 3.0898 5.3555 2.1836 1.832-0.89062 3.9531-1.5273 5.4766-2.9414 1.9414-1.7969 2.8125-4.4336 3.7734-6.8203 0.74219-1.8242-0.79297-4.0234-2.5508-4.4844-4.543-1.1914-9.2578-1.1367-12.82 2.293-3.5742 3.4414-3.6641 9.3086-3.168 13.859 0.21094 1.9414 1.5 3.6914 3.6445 3.6445 3.3594-0.070313 7.4727-0.4375 9.457-3.5977 1.3086-2.0781 0.99609-4.4023 1.6445-6.668 1.3086-4.5273-5.7266-6.4453-7.0273-1.9375-0.39062 1.3516-0.42578 2.7695-0.62891 4.125-0.15625 1.0664-2.3438 0.75781-3.4414 0.78125 1.2148 1.2148 2.4336 2.4336 3.6445 3.6445-0.30859-2.8008-0.62891-5.9492 0.85156-8.4805 1.1133-1.9141 4.2773-1.0664 5.9102-0.64062-0.85156-1.4922-1.6992-2.9883-2.5508-4.4844-0.30469 0.74609-1.1367 3.0156-1.4922 3.2773-1.2656 0.94922-3.0117 1.4414-4.4141 2.125 1.7852 0.73047 3.5703 1.4531 5.3555 2.1836-0.16797-1.1914-0.34375-2.375-0.4375-3.5703-0.12109-1.4805 0.17969-0.61328-0.86328 0.13281-0.27344 0.19141 1.207-0.25 1.6758-0.32031 0.61719-0.097656 1.2539-0.15625 1.8711-0.23438 0.83984-0.10547 2.6133 0.31641 1.0391-0.30469-0.85156-0.85156-1.6992-1.6992-2.5508-2.5508-0.45312-1.1914 0.12891-1.2539-0.60547 0.12109-0.32812 0.60547-0.78125 1.2891-1.0039 1.4648 0.85156-0.35547 1.7148-0.71094 2.5742-1.0664-0.039063 0-0.082031 0-0.12109 0.003906 1.1719 0.89062 2.3438 1.7852 3.5234 2.6758-0.015625-0.050781-0.027344-0.10547-0.046875-0.15234-0.76953-2.7578-4.0703-3.4062-6.0977-1.6094 1.2617-0.10547 2.5195-0.20312 3.7734-0.30859 0.55859 0.73047 1.1133 1.4531 1.6758 2.1836 0.25781 0.76562-0.09375 1.3164 0.21484 0.17578 0.16797-0.64063 0.41016-1.2656 0.64844-1.8906 0.17969-0.48828 0.41406-0.94922 0.64844-1.418 0.53516-1.0508 0.4375-0.35547-0.28125-0.046875-0.93359 0.12109-1.8711 0.24609-2.8047 0.36719 0.035156 0.011719 0.074218 0.015625 0.10937 0.027344-0.73047-0.55859-1.4531-1.1133-2.1836-1.6758-0.11719-0.38672-0.23438-0.76953-0.35156-1.1562 0.36328-0.85938 0.71094-1.7148 1.0664-2.5781-2.082 2.0312-4.4219 2.9414-6.8438 4.4844 1.7852 1.3711 3.5703 2.7422 5.3555 4.1172 0.35547-2.1133 0.76562-4.1992 1.457-6.2305 0.14453-0.4375 0.39063-0.82813 0.64063-1.2148-0.75391 1.1719-2.4609 0.92188-3.4062 0.14453 0.32031 0.26172-0.23828-0.48438 0.21484 0.375-0.31641-0.58203 0.24609 0.85156 0.30859 1.1328 0.21484 0.87891 0.22266 1.8828 0.11719 3.1367-0.12109 1.457-0.50781 2.1875-1.8789 1.9609-1.1484-0.19141-2.25-0.33984-3.2852-0.91406 0.35547 0.19922-0.14453 0.67578 0.30859-0.26953 0.77734-1.6055 2.3203-2.7109 3.8438-3.5273 4.1758-2.2109 0.49609-8.5078-3.6484-6.2852z"/>
  <path d="m243.02 268.19c0.75391 1.8203 0.23828 4.3867 1.9609 6.3359 3.2539 3.6797 8.2188-1.2773 10.461-3.4648 2.1289-2.082 0.83594-5.1211-1.6094-6.0898-2.7461-1.0977-5.5898-2.3516-8.5508-2.6523-3.4531-0.35156-4.4336 4.0781-2.5781 6.2227 2.8867 3.3438 7.4883 7.5938 12.344 6.0156 5.5352-1.8086 4.7539-8.9297 3.8633-13.352-0.32031-1.5742-1.9844-2.6758-3.5156-2.6758h-5.0586c-2.1016 0-3.5 1.668-3.6445 3.6445-0.43359 5.7812 1.6289 12.273 8.3086 12.66 6.2227 0.35547 10.227-6.5742 11.496-11.691 0.48828-1.9727-0.61328-3.8867-2.5508-4.4844-6.2539-1.9414-15.098-1.7109-17.285 5.8633-2.2344 7.7344 6.375 11.965 12.52 12.676 1.5742 0.17969 3.1367-1.2422 3.5156-2.6758 1.1719-4.4375 1.5039-9.4453-1.3516-13.34-2.8711-3.9219-7.6289-5.082-12.266-5.1797-1.5234-0.027344-3.2188 1.125-3.5156 2.6758-1.2031 6.207 0.11719 13.184 5.6836 16.895 6.5234 4.3477 11.574-3.0625 12.727-8.6328 0.94922-4.5898-6.0781-6.5391-7.0273-1.9375-0.1875 0.91406-0.92188 5.1875-2.1406 4.2188-2.4375-1.9492-2.7539-5.7734-2.2031-8.6055-1.1719 0.89062-2.3398 1.7852-3.5156 2.6758 2.1055 0.046876 4.9688 0.20313 6.3594 2.0938 1.5 2.0469 0.82422 4.957 0.23438 7.1914 1.1719-0.89062 2.3398-1.7852 3.5156-2.6758-1.7773-0.20313-5.8633-1.457-5.4883-3.4414 0.55859-2.9336 6.5469-1.3242 8.3164-0.76953-0.85156-1.4922-1.6992-2.9883-2.5508-4.4844-0.60547 2.4492-1.7109 5.6484-4.457 6.3594-1.3164 0.34375-1.0742-4.7734-1.0273-5.3906l-3.6445 3.6445h5.0586c-1.1719-0.89062-2.3398-1.7852-3.5156-2.6758 0.27344 1.3633 0.44141 2.6641 0.42578 4.0586-0.023438 1.7891-0.48828 0.24609 0.85156 0.44922-2.1484-0.32031-3.9961-2.7461-5.2969-4.2578-0.85938 2.0703-1.7227 4.1484-2.5781 6.2227 1.3242 0.13281 4.6719 1.6211 6.6133 2.3906-0.53516-2.0312-1.0742-4.0586-1.6094-6.0898-0.92578 0.91016-1.832 1.8555-2.918 2.5859 2.8164-1.9141 3.4414 3.0625 3.3125 1.5938-0.11719-1.2852-0.12891-2.6289-0.625-3.832-1.7734-4.293-8.832-2.4219-7.043 1.9258z"/>
  <path d="m273.23 369.61c-0.5 30.84 44.445 38.207 67.27 39.164 35.164 1.4766 72.426-15.008 72.742-54.332 0.039063-4.7031-7.25-4.7031-7.293 0-0.27344 34.316-31.25 46.066-60.918 47.062-18.922 0.62891-64.941-5.2266-64.512-31.898 0.078125-4.7031-7.2109-4.6914-7.2891 0.003907z"/>
  <path d="m269.43 364.55c-0.17578 3.8086-1.1914 7.5352-1.2617 11.375h7.293v-13.906c0-4.7031-7.293-4.7031-7.293 0v13.906c0 4.707 7.2031 4.6953 7.293 0 0.070312-3.8398 1.0859-7.5586 1.2617-11.375 0.21875-4.707-7.0703-4.6836-7.293 0z"/>
  <path d="m260.17 380.01c-2.7422-13.266 20.812-22.215 30.906-20.797 4.5977 0.64844 6.5781-6.3828 1.9375-7.0273-15.855-2.2227-43.93 10.09-39.871 29.766 0.94922 4.5977 7.9727 2.6484 7.0273-1.9414z"/>
  <path d="m389.07 357.95c14.484-2.6758 21.707 7.168 31.852 15.492 3.6055 2.957 8.7969-2.1719 5.1641-5.1562-5.9961-4.918-11.305-10.77-17.941-14.859-6.4102-3.9492-13.867-3.832-21.004-2.5078-4.625 0.85938-2.6641 7.8828 1.9297 7.0312z"/>
 </g>
</svg>
