<?xml version="1.0" encoding="UTF-8"?>
<svg width="700pt" height="700pt" version="1.1" viewBox="0 0 700 700" xmlns="http://www.w3.org/2000/svg" xmlns:xlink="http://www.w3.org/1999/xlink">
 <defs>
  <symbol id="h" overflow="visible">
   <path d="m14.656-0.875c-0.76172 0.39844-1.5547 0.69531-2.375 0.89062-0.8125 0.19531-1.6641 0.29688-2.5469 0.29688-2.6562 0-4.7617-0.73828-6.3125-2.2188-1.5547-1.4883-2.3281-3.5039-2.3281-6.0469 0-2.5508 0.77344-4.5664 2.3281-6.0469 1.5508-1.4883 3.6562-2.2344 6.3125-2.2344 0.88281 0 1.7344 0.10156 2.5469 0.29688 0.82031 0.19922 1.6133 0.49609 2.375 0.89062v3.2969c-0.76172-0.51953-1.5117-0.89844-2.25-1.1406-0.74219-0.23828-1.5234-0.35938-2.3438-0.35938-1.4688 0-2.625 0.46875-3.4688 1.4062-0.83594 0.9375-1.25 2.2344-1.25 3.8906 0 1.6484 0.41406 2.9375 1.25 3.875 0.84375 0.9375 2 1.4062 3.4688 1.4062 0.82031 0 1.6016-0.11719 2.3438-0.35938 0.73828-0.23828 1.4883-0.61719 2.25-1.1406z"/>
  </symbol>
  <symbol id="c" overflow="visible">
   <path d="m10.719-8.7031c-0.33594-0.15625-0.66797-0.26953-1-0.34375-0.32422-0.082031-0.65625-0.125-1-0.125-0.98047 0-1.7344 0.32031-2.2656 0.95312-0.53125 0.625-0.79688 1.5273-0.79688 2.7031v5.5156h-3.8125v-11.969h3.8125v1.9688c0.48828-0.78125 1.0508-1.3477 1.6875-1.7031 0.64453-0.36328 1.4102-0.54688 2.2969-0.54688 0.13281 0 0.27344 0.007812 0.42188 0.015625 0.14453 0.011719 0.36328 0.03125 0.65625 0.0625z"/>
  </symbol>
  <symbol id="a" overflow="visible">
   <path d="m13.781-6.0156v1.0938h-8.9375c0.09375 0.89844 0.41406 1.5703 0.96875 2.0156 0.55078 0.44922 1.3281 0.67188 2.3281 0.67188 0.80078 0 1.625-0.11719 2.4688-0.35938 0.84375-0.23828 1.7109-0.59766 2.6094-1.0781v2.9531c-0.90625 0.33594-1.8125 0.58984-2.7188 0.76562s-1.8125 0.26562-2.7188 0.26562c-2.1562 0-3.8398-0.54688-5.0469-1.6406-1.1992-1.1016-1.7969-2.6484-1.7969-4.6406 0-1.9453 0.58594-3.4766 1.7656-4.5938 1.1758-1.125 2.8008-1.6875 4.875-1.6875 1.875 0 3.375 0.57031 4.5 1.7031 1.1328 1.125 1.7031 2.6367 1.7031 4.5312zm-3.9375-1.2656c0-0.72656-0.21484-1.3125-0.64062-1.75-0.41797-0.44531-0.96875-0.67188-1.6562-0.67188-0.74219 0-1.3438 0.21094-1.8125 0.625-0.46094 0.41797-0.74609 1.0156-0.85938 1.7969z"/>
  </symbol>
  <symbol id="m" overflow="visible">
   <path d="m7.2031-5.3906c-0.80469 0-1.4062 0.13672-1.8125 0.40625-0.39844 0.27344-0.59375 0.67188-0.59375 1.2031 0 0.48047 0.16016 0.85938 0.48438 1.1406 0.32031 0.27344 0.77344 0.40625 1.3594 0.40625 0.71875 0 1.3203-0.25391 1.8125-0.76562 0.48828-0.51953 0.73438-1.1719 0.73438-1.9531v-0.4375zm5.8438-1.4375v6.8281h-3.8594v-1.7656c-0.51172 0.71875-1.0898 1.2461-1.7344 1.5781-0.63672 0.33203-1.418 0.5-2.3438 0.5-1.2422 0-2.2461-0.35938-3.0156-1.0781-0.77344-0.72656-1.1562-1.6719-1.1562-2.8281 0-1.3945 0.47656-2.4219 1.4375-3.0781 0.96875-0.65625 2.4883-0.98438 4.5625-0.98438h2.25v-0.29688c0-0.60156-0.24219-1.0469-0.71875-1.3281-0.48047-0.28125-1.2266-0.42188-2.2344-0.42188-0.8125 0-1.5742 0.085937-2.2812 0.25-0.71094 0.15625-1.3672 0.40234-1.9688 0.73438v-2.9219c0.82031-0.19531 1.6445-0.34766 2.4688-0.45312 0.82031-0.10156 1.6484-0.15625 2.4844-0.15625 2.1562 0 3.7109 0.42969 4.6719 1.2812 0.95703 0.84375 1.4375 2.2266 1.4375 4.1406z"/>
  </symbol>
  <symbol id="b" overflow="visible">
   <path d="m6.0156-15.359v3.3906h3.9375v2.7344h-3.9375v5.0781c0 0.55469 0.10938 0.92969 0.32812 1.125 0.21875 0.19922 0.65625 0.29688 1.3125 0.29688h1.9688v2.7344h-3.2812c-1.5117 0-2.5859-0.3125-3.2188-0.9375-0.625-0.63281-0.9375-1.707-0.9375-3.2188v-5.0781h-1.9062v-2.7344h1.9062v-3.3906z"/>
  </symbol>
  <symbol id="l" overflow="visible">
   <path d="m9.9688-10.219v-6.4062h3.8594v16.625h-3.8594v-1.7344c-0.52344 0.71094-1.1016 1.2305-1.7344 1.5625-0.63672 0.32031-1.3711 0.48438-2.2031 0.48438-1.4688 0-2.6797-0.58203-3.625-1.75-0.94922-1.1758-1.4219-2.6875-1.4219-4.5312s0.47266-3.3477 1.4219-4.5156c0.94531-1.1758 2.1562-1.7656 3.625-1.7656 0.83203 0 1.5664 0.16797 2.2031 0.5 0.63281 0.32422 1.2109 0.83594 1.7344 1.5312zm-2.5156 7.75c0.82031 0 1.4453-0.29688 1.875-0.89062 0.42578-0.60156 0.64062-1.4727 0.64062-2.6094 0-1.1445-0.21484-2.0156-0.64062-2.6094-0.42969-0.59375-1.0547-0.89062-1.875-0.89062-0.8125 0-1.4336 0.29688-1.8594 0.89062-0.42969 0.59375-0.64062 1.4648-0.64062 2.6094 0 1.1367 0.21094 2.0078 0.64062 2.6094 0.42578 0.59375 1.0469 0.89062 1.8594 0.89062z"/>
  </symbol>
  <symbol id="k" overflow="visible">
   <path d="m8.2031-2.4688c0.82031 0 1.4453-0.29688 1.875-0.89062 0.42578-0.60156 0.64062-1.4727 0.64062-2.6094 0-1.1445-0.21484-2.0156-0.64062-2.6094-0.42969-0.59375-1.0547-0.89062-1.875-0.89062-0.82422 0-1.4531 0.30469-1.8906 0.90625-0.4375 0.59375-0.65625 1.4609-0.65625 2.5938 0 1.1367 0.21875 2.0078 0.65625 2.6094 0.4375 0.59375 1.0664 0.89062 1.8906 0.89062zm-2.5469-7.75c0.53125-0.69531 1.1133-1.207 1.75-1.5312 0.64453-0.33203 1.3828-0.5 2.2188-0.5 1.4688 0 2.6758 0.58984 3.625 1.7656 0.94531 1.168 1.4219 2.6719 1.4219 4.5156s-0.47656 3.3555-1.4219 4.5312c-0.94922 1.168-2.1562 1.75-3.625 1.75-0.83594 0-1.5742-0.16797-2.2188-0.5-0.63672-0.33203-1.2188-0.84766-1.75-1.5469v1.7344h-3.8125v-16.625h3.8125z"/>
  </symbol>
  <symbol id="j" overflow="visible">
   <path d="m0.26562-11.969h3.8281l3.2188 8.125 2.7344-8.125h3.8125l-5.0312 13.094c-0.5 1.332-1.0898 2.2656-1.7656 2.7969-0.66797 0.53125-1.5547 0.79688-2.6562 0.79688h-2.2188v-2.5h1.2031c0.64453 0 1.1133-0.10547 1.4062-0.3125 0.30078-0.21094 0.53125-0.57812 0.6875-1.1094l0.10938-0.34375z"/>
  </symbol>
  <symbol id="i" overflow="visible">
   <path d="m0.65625-15.953h3.9375l2.75 11.594 2.7344-11.594h3.9688l2.7344 11.594 2.75-11.594h3.9062l-3.75 15.953h-4.75l-2.8906-12.125-2.8594 12.125h-4.75z"/>
  </symbol>
  <symbol id="g" overflow="visible">
   <path d="m2.0156-15.953h11.094v3.1094h-6.9844v2.9688h6.5625v3.1094h-6.5625v3.6562h7.2188v3.1094h-11.328z"/>
  </symbol>
  <symbol id="z" overflow="visible">
   <path d="m8.3906-9.7656c0.65625 0 1.1484-0.14062 1.4844-0.42188 0.33203-0.28906 0.5-0.71094 0.5-1.2656 0-0.55078-0.16797-0.97266-0.5-1.2656-0.33594-0.28906-0.82812-0.4375-1.4844-0.4375h-2.2656v3.3906zm0.14062 6.9688c0.82031 0 1.4414-0.17188 1.8594-0.51562 0.41406-0.35156 0.625-0.88281 0.625-1.5938 0-0.6875-0.21094-1.2031-0.625-1.5469-0.40625-0.34375-1.0273-0.51562-1.8594-0.51562h-2.4062v4.1719zm3.8281-5.7344c0.88281 0.25 1.5664 0.72656 2.0469 1.4219 0.48828 0.6875 0.73438 1.5312 0.73438 2.5312 0 1.543-0.52344 2.6953-1.5625 3.4531-1.043 0.75-2.625 1.125-4.75 1.125h-6.8125v-15.953h6.1719c2.207 0 3.8047 0.33984 4.7969 1.0156 1 0.66797 1.5 1.7344 1.5 3.2031 0 0.78125-0.18359 1.4492-0.54688 2-0.36719 0.54297-0.89062 0.94531-1.5781 1.2031z"/>
  </symbol>
  <symbol id="y" overflow="visible">
   <path d="m0.10938-15.953h14.688v3.1094h-5.2812v12.844h-4.1094v-12.844h-5.2969z"/>
  </symbol>
  <symbol id="x" overflow="visible">
   <path d="m2.0156-15.953h4.1094v6.0781h6.0625v-6.0781h4.1094v15.953h-4.1094v-6.7656h-6.0625v6.7656h-4.1094z"/>
  </symbol>
  <symbol id="w" overflow="visible">
   <path d="m9.2969-13.25c-1.2617 0-2.2344 0.46484-2.9219 1.3906-0.6875 0.91797-1.0312 2.2188-1.0312 3.9062 0 1.668 0.34375 2.9648 1.0312 3.8906 0.6875 0.92969 1.6602 1.3906 2.9219 1.3906 1.2578 0 2.2344-0.46094 2.9219-1.3906 0.6875-0.92578 1.0312-2.2227 1.0312-3.8906 0-1.6875-0.34375-2.9883-1.0312-3.9062-0.6875-0.92578-1.6641-1.3906-2.9219-1.3906zm0-2.9844c2.5625 0 4.5664 0.73438 6.0156 2.2031 1.457 1.4688 2.1875 3.4961 2.1875 6.0781 0 2.5742-0.73047 4.5938-2.1875 6.0625-1.4492 1.4688-3.4531 2.2031-6.0156 2.2031s-4.5742-0.73438-6.0312-2.2031c-1.4492-1.4688-2.1719-3.4883-2.1719-6.0625 0-2.582 0.72266-4.6094 2.1719-6.0781 1.457-1.4688 3.4688-2.2031 6.0312-2.2031z"/>
  </symbol>
  <symbol id="e" overflow="visible">
   <path d="m2.0156-15.953h6.8125c2.0312 0 3.5859 0.45312 4.6719 1.3594 1.0938 0.89844 1.6406 2.1797 1.6406 3.8438 0 1.6797-0.54688 2.9688-1.6406 3.875-1.0859 0.89844-2.6406 1.3438-4.6719 1.3438h-2.7031v5.5312h-4.1094zm4.1094 2.9844v4.4531h2.2656c0.80078 0 1.4141-0.19141 1.8438-0.57812 0.4375-0.38281 0.65625-0.9375 0.65625-1.6562 0-0.70703-0.21875-1.2539-0.65625-1.6406-0.42969-0.38281-1.043-0.57812-1.8438-0.57812z"/>
  </symbol>
  <symbol id="v" overflow="visible">
   <path d="m13.109-15.438v3.375c-0.875-0.39453-1.7305-0.69141-2.5625-0.89062-0.83594-0.19531-1.6211-0.29688-2.3594-0.29688-0.99219 0-1.7188 0.13672-2.1875 0.40625-0.46875 0.27344-0.70312 0.6875-0.70312 1.25 0 0.42969 0.15625 0.76172 0.46875 1 0.32031 0.24219 0.89844 0.44922 1.7344 0.625l1.75 0.34375c1.7695 0.35547 3.0312 0.89844 3.7812 1.625 0.75 0.73047 1.125 1.7617 1.125 3.0938 0 1.7617-0.52734 3.0742-1.5781 3.9375-1.043 0.85547-2.6328 1.2812-4.7656 1.2812-1.0117 0-2.0273-0.10156-3.0469-0.29688-1.0234-0.1875-2.043-0.46875-3.0625-0.84375v-3.4688c1.0195 0.53125 2.0039 0.9375 2.9531 1.2188 0.95703 0.27344 1.875 0.40625 2.75 0.40625 0.90625 0 1.5938-0.14453 2.0625-0.4375 0.47656-0.30078 0.71875-0.73438 0.71875-1.2969 0-0.48828-0.16406-0.86719-0.48438-1.1406-0.32422-0.26953-0.96875-0.51562-1.9375-0.73438l-1.5938-0.35938c-1.5938-0.33203-2.7617-0.875-3.5-1.625-0.74219-0.75-1.1094-1.7578-1.1094-3.0312 0-1.582 0.50781-2.8008 1.5312-3.6562 1.0312-0.85156 2.5078-1.2812 4.4375-1.2812 0.875 0 1.7734 0.070313 2.7031 0.20312 0.92578 0.125 1.8828 0.32422 2.875 0.59375z"/>
  </symbol>
  <symbol id="f" overflow="visible">
   <path d="m2.0156-15.953h4.1094v12.844h7.2188v3.1094h-11.328z"/>
  </symbol>
  <symbol id="u" overflow="visible">
   <path d="m9.7031-16.625v2.5156h-2.1094c-0.54297 0-0.92188 0.10156-1.1406 0.29688-0.21094 0.19922-0.3125 0.53906-0.3125 1.0156v0.82812h3.2656v2.7344h-3.2656v9.2344h-3.8281v-9.2344h-1.8906v-2.7344h1.8906v-0.82812c0-1.3008 0.36328-2.2656 1.0938-2.8906 0.72656-0.625 1.8516-0.9375 3.375-0.9375z"/>
  </symbol>
  <symbol id="d" overflow="visible">
   <path d="m7.5312-9.5156c-0.84375 0-1.4922 0.30859-1.9375 0.92188-0.44922 0.60547-0.67188 1.4805-0.67188 2.625 0 1.1484 0.22266 2.0273 0.67188 2.6406 0.44531 0.60547 1.0938 0.90625 1.9375 0.90625 0.83203 0 1.4688-0.30078 1.9062-0.90625 0.44531-0.61328 0.67188-1.4922 0.67188-2.6406 0-1.1445-0.22656-2.0195-0.67188-2.625-0.4375-0.61328-1.0742-0.92188-1.9062-0.92188zm0-2.7344c2.0508 0 3.6562 0.55859 4.8125 1.6719 1.1641 1.1055 1.75 2.6406 1.75 4.6094s-0.58594 3.5117-1.75 4.625c-1.1562 1.1055-2.7617 1.6562-4.8125 1.6562-2.0625 0-3.6797-0.55078-4.8438-1.6562-1.168-1.1133-1.75-2.6562-1.75-4.625s0.58203-3.5039 1.75-4.6094c1.1641-1.1133 2.7812-1.6719 4.8438-1.6719z"/>
  </symbol>
  <symbol id="t" overflow="visible">
   <path d="m12.922-9.9688c0.48828-0.75 1.0625-1.3164 1.7188-1.7031 0.66406-0.38281 1.3984-0.57812 2.2031-0.57812 1.375 0 2.4219 0.42969 3.1406 1.2812 0.71875 0.84375 1.0781 2.0742 1.0781 3.6875v7.2812h-3.8438v-6.2344c0.007812-0.09375 0.015625-0.1875 0.015625-0.28125v-0.4375c0-0.84375-0.125-1.457-0.375-1.8438-0.25-0.38281-0.65234-0.57812-1.2031-0.57812-0.73047 0-1.293 0.30469-1.6875 0.90625-0.38672 0.59375-0.58984 1.4609-0.60938 2.5938v5.875h-3.8438v-6.2344c0-1.3203-0.11719-2.1758-0.34375-2.5625-0.23047-0.38281-0.63672-0.57812-1.2188-0.57812-0.73047 0-1.2969 0.30469-1.7031 0.90625-0.39844 0.60547-0.59375 1.4648-0.59375 2.5781v5.8906h-3.8438v-11.969h3.8438v1.75c0.46875-0.66406 1.0039-1.1719 1.6094-1.5156 0.61328-0.34375 1.2891-0.51562 2.0312-0.51562 0.82031 0 1.5508 0.19922 2.1875 0.59375 0.63281 0.39844 1.1133 0.96094 1.4375 1.6875z"/>
  </symbol>
  <symbol id="s" overflow="visible">
   <path d="m13.859-7.2812v7.2812h-3.8438v-5.5469c0-1.0508-0.027344-1.7695-0.078125-2.1562-0.042969-0.39453-0.12109-0.6875-0.23438-0.875-0.14844-0.25-0.35156-0.44141-0.60938-0.57812-0.25-0.14453-0.54297-0.21875-0.875-0.21875-0.79297 0-1.418 0.3125-1.875 0.9375-0.46094 0.61719-0.6875 1.4648-0.6875 2.5469v5.8906h-3.8125v-16.625h3.8125v6.4062c0.58203-0.69531 1.1953-1.207 1.8438-1.5312 0.64453-0.33203 1.3594-0.5 2.1406-0.5 1.3828 0 2.4297 0.42969 3.1406 1.2812 0.71875 0.84375 1.0781 2.0742 1.0781 3.6875z"/>
  </symbol>
  <symbol id="r" overflow="visible">
   <path d="m2.0156-15.953h4.5781l5.8125 10.938v-10.938h3.8906v15.953h-4.5938l-5.7969-10.938v10.938h-3.8906z"/>
  </symbol>
  <symbol id="q" overflow="visible">
   <path d="m1.7031-4.6562v-7.3125h3.8438v1.2031c0 0.64844-0.007813 1.4609-0.015625 2.4375v1.9688c0 0.96094 0.023438 1.6523 0.078125 2.0781 0.050781 0.41797 0.13281 0.72656 0.25 0.92188 0.15625 0.25 0.35938 0.44531 0.60938 0.57812 0.25781 0.13672 0.55078 0.20312 0.875 0.20312 0.80078 0 1.4258-0.30469 1.875-0.92188 0.45703-0.61328 0.6875-1.4688 0.6875-2.5625v-5.9062h3.8281v11.969h-3.8281v-1.7344c-0.57422 0.69922-1.1836 1.2148-1.8281 1.5469-0.64844 0.33203-1.3555 0.5-2.125 0.5-1.3867 0-2.4453-0.42188-3.1719-1.2656-0.71875-0.85156-1.0781-2.0859-1.0781-3.7031z"/>
  </symbol>
  <symbol id="p" overflow="visible">
   <path d="m13.859-7.2812v7.2812h-3.8438v-5.5781c0-1.0312-0.027344-1.7383-0.078125-2.125-0.042969-0.39453-0.12109-0.6875-0.23438-0.875-0.14844-0.25-0.35156-0.44141-0.60938-0.57812-0.25-0.14453-0.54297-0.21875-0.875-0.21875-0.79297 0-1.418 0.3125-1.875 0.9375-0.46094 0.61719-0.6875 1.4648-0.6875 2.5469v5.8906h-3.8125v-11.969h3.8125v1.75c0.58203-0.69531 1.1953-1.207 1.8438-1.5312 0.64453-0.33203 1.3594-0.5 2.1406-0.5 1.3828 0 2.4297 0.42969 3.1406 1.2812 0.71875 0.84375 1.0781 2.0742 1.0781 3.6875z"/>
  </symbol>
  <symbol id="o" overflow="visible">
   <path d="m1.8438-11.969h3.8125v11.75c0 1.6016-0.38672 2.8281-1.1562 3.6719-0.76172 0.84375-1.8711 1.2656-3.3281 1.2656h-1.8906v-2.5h0.65625c0.72656 0 1.2266-0.16797 1.5-0.5 0.26953-0.32422 0.40625-0.96875 0.40625-1.9375zm0-4.6562h3.8125v3.125h-3.8125z"/>
  </symbol>
  <symbol id="n" overflow="visible">
   <path d="m11.5-11.594v3.125c-0.52344-0.35156-1.043-0.61328-1.5625-0.78125-0.52344-0.17578-1.0625-0.26562-1.625-0.26562-1.0742 0-1.9062 0.3125-2.5 0.9375s-0.89062 1.4961-0.89062 2.6094c0 1.1172 0.29688 1.9844 0.89062 2.6094s1.4258 0.9375 2.5 0.9375c0.59375 0 1.1562-0.085937 1.6875-0.26562 0.53906-0.17578 1.0391-0.44141 1.5-0.79688v3.125c-0.59375 0.23047-1.1992 0.39453-1.8125 0.5-0.61719 0.11328-1.2344 0.17188-1.8594 0.17188-2.1562 0-3.8438-0.55078-5.0625-1.6562-1.2188-1.1133-1.8281-2.6562-1.8281-4.625s0.60938-3.5039 1.8281-4.6094c1.2188-1.1133 2.9062-1.6719 5.0625-1.6719 0.625 0 1.2383 0.058594 1.8438 0.17188 0.61328 0.10547 1.2227 0.26562 1.8281 0.48438z"/>
  </symbol>
 </defs>
 <g>
  <path d="m398.04 50.039c-0.91406-3.1133-3.4766-5.4648-6.6602-6.1094-3.1797-0.64453-6.457 0.52734-8.5117 3.0391-26.895 32.926-63.816 55.227-90.059 68.129-36.348 17.879-78.93 44.684-85.645 93.719-0.32812 2.3047 0.27344 4.6484 1.6758 6.5117 1.4023 1.8594 3.4883 3.082 5.8008 3.3984 2.3086 0.31641 4.6445-0.30078 6.5-1.7148 1.8516-1.4141 3.0625-3.5117 3.3633-5.8203 5.5938-40.859 43.57-64.43 76.031-80.391 30.965-14.844 59.219-34.781 83.586-58.977 2.0391 23.273-1.6055 64.922-47.102 88.766-4.2812 2.2422-5.9336 7.5312-3.6914 11.809 2.2422 4.2812 7.5312 5.9336 11.812 3.6914 10.371-5.3359 19.836-12.273 28.043-20.559-5.8984 30.973-26.398 82.594-97.195 98.43h0.003907c-4.3516 0.97656-7.2773 5.0664-6.7891 9.4961 0.48828 4.4336 4.2305 7.7891 8.6875 7.7969 0.64453 0 1.2891-0.070312 1.918-0.21094 115.5-25.84 113.26-138.93 113.22-140.07h0.003906c-0.039062-1.1562-0.30469-2.293-0.78516-3.3438 16.973-37.781 5.9609-77.016 5.7891-77.594z"/>
  <path d="m595 525h-26.25c-0.003906-4.6406-1.8516-9.0859-5.1289-12.367-3.2812-3.2812-7.7305-5.1289-12.371-5.1328h-43.75c-4.6406 0.003906-9.0859 1.8516-12.367 5.1328s-5.1289 7.7266-5.1328 12.367h-17.5c-0.003906-4.6406-1.8516-9.0859-5.1289-12.367-3.2812-3.2812-7.7305-5.1289-12.371-5.1328h-43.75c-4.6406 0.003906-9.0859 1.8516-12.367 5.1328s-5.1289 7.7266-5.1328 12.367h-8.875c0.26562-2.2344 0.085938-4.5-0.53125-6.6641l-5.4648-19.23c-1.3242-4.6484-6.1602-7.3477-10.809-6.0234-4.6484 1.3203-7.3477 6.1602-6.0273 10.809l5.3594 18.855-14.918 4.3164-5.6133-19.746v-0.003906c-1.3203-4.6484-6.1602-7.3438-10.809-6.0234-4.6484 1.3203-7.3477 6.1602-6.0234 10.809l5.7422 20.199c1.2109 4.3633 4.1172 8.0586 8.0742 10.262s8.6328 2.7266 12.98 1.457l7.4375-2.1484h-0.003907c1.0273 0.41406 2.125 0.62891 3.2305 0.63281h26.25c0.003906 4.6406 1.8516 9.0898 5.1328 12.367 3.2812 3.2812 7.7266 5.1289 12.367 5.1328h43.75c4.6406-0.003906 9.0898-1.8516 12.371-5.1328 3.2773-3.2773 5.125-7.7266 5.1289-12.367h17.5c0.003906 4.6406 1.8516 9.0898 5.1328 12.367 3.2812 3.2812 7.7266 5.1289 12.367 5.1328h43.75c4.6406-0.003906 9.0898-1.8516 12.371-5.1328 3.2773-3.2773 5.125-7.7266 5.1289-12.367h26.25c2.3281 0.011719 4.5664-0.90234 6.2188-2.5469 1.6523-1.6406 2.5781-3.875 2.5781-6.2031s-0.92578-4.5625-2.5781-6.2031c-1.6523-1.6445-3.8906-2.5586-6.2188-2.5469zm-140 17.5h-43.75v-17.5l43.75-0.011719zm96.25 0h-43.75v-17.5l43.75-0.011719z"/>
  <path d="m338.12 463.56-5.5234-19.43 14.918-4.3164 5.7773 20.324c1.3242 4.6484 6.1641 7.3438 10.812 6.0234 4.6484-1.3203 7.3438-6.1602 6.0234-10.809l-5.9062-20.777c-0.97266-3.5195-3.0664-6.6289-5.9648-8.8477-2.8984-2.2227-6.4453-3.4414-10.098-3.4648v-17.578c4.6406-0.003906 9.0898-1.8477 12.371-5.1289s5.125-7.7305 5.1289-12.371v-43.746c-0.011718-4.2969-1.6055-8.4336-4.4805-11.625-2.8711-3.1914-6.8164-5.2148-11.086-5.6797l0.66016-2.7656v-0.003906c10.688 4.9102 20.648 11.27 29.602 18.895 1 0.83984 2.6484 2.1133 4.6562 3.6562 6.0859 4.3594 11.742 9.2891 16.895 14.719 0.88281 4.0078 4.4375 6.8633 8.5391 6.8672 0.082032 0 0.16797 0 0.25-0.003906v-0.003906c4.7383-0.12891 8.5078-4.0078 8.5078-8.7422 0-0.050781 0-0.09375-0.019531-0.49219h0.007812l-0.027344-0.35938c-0.13281-2.5078-0.72266-12.973-3.3164-58.934l29.215-50.188c1.9766-3.4062 1.4375-7.7109-1.3203-10.523-2.7539-2.8086-7.0469-3.4336-10.492-1.5273-20.297 10.129-42.73 15.23-65.41 14.883l1.6133-6.7695-0.003906-0.003906c1.1211-4.6992-1.7852-9.418-6.4844-10.539-4.7031-1.1172-9.4219 1.7891-10.539 6.4883l-2.1133 8.8789c-2.4453-0.47266-4.8984-1.0195-7.3672-1.6914-2.2422-0.61328-4.6367-0.3125-6.6523 0.83984-2.0195 1.1523-3.4961 3.0625-4.1055 5.3047-0.60938 2.2422-0.30078 4.6328 0.85547 6.6484s3.0703 3.4883 5.3125 4.0898c2.6523 0.72266 5.2812 1.3086 7.9023 1.8359l-8.0391 33.754c-4.0508-1.0781-8.1602-1.9219-12.309-2.5312-16.047-1.8203-32.215-2.3633-48.348-1.6211-9.9766 0.20703-20.297 0.41406-30.273-0.074219-41.547-2-65.316-13.223-74.805-35.316-5.9883-13.945-6.8008-28.457-7.6602-43.828-1.0781-19.273-2.1953-39.199-13.918-58.422l-0.72656-1.2109v0.007813c-4.8828-9.4258-12.941-16.816-22.754-20.871 0.050781-0.042969 0.085938-0.082031 0.12891-0.12109 2.4375-2.6836 3.9609-6.0742 4.3438-9.6797 0.10547-0.44922 0.19141-0.90234 0.25-1.3594 1.8086-4.3984 4.875-8.1641 8.8125-10.836 8.6836-5.6055 21.852-5.7695 36.129-0.44141 18.191 6.793 33.555 20.676 37.363 33.766v0.003906h0.003906v0.003907c0.63672 2.2383 2.1367 4.1367 4.1758 5.2656 2.0391 1.1289 4.4414 1.3984 6.6797 0.74609 2.2383-0.64844 4.125-2.1641 5.2422-4.207 1.1172-2.0469 1.3711-4.4531 0.70703-6.6836h-0.003907l-0.007812-0.035156c-6.3398-21.988 26.27-43.051 45.758-55.633l4.3398-2.8164c14.84-9.7031 39.738-25.98 44.516-53.23v0.003906c6.6172 10.25 8.5938 22.824 5.4336 34.609-1.1875 4.6836 1.6484 9.4414 6.3281 10.629 4.6836 1.1875 9.4414-1.6406 10.633-6.3242 8.8125-34.738-13.988-60.215-27.277-68.828-3.0156-1.9531-6.918-1.8672-9.8438 0.21875-2.9258 2.0898-4.2734 5.75-3.4062 9.2383 6.3672 25.555-8.3672 41-35.961 59.039l-4.2539 2.7617c-16.598 10.715-41.07 26.52-50.625 46.969v-0.003906c-9.4766-9.6875-20.977-17.164-33.68-21.883-19.5-7.2891-38.363-6.5078-51.742 2.1328-6.832 4.5312-12.172 10.977-15.355 18.527-0.59766 1.5117-1.0391 3.0781-1.3242 4.6797-0.078124 0.375-0.15625 0.76953-0.23828 1.1445-4.4844 3.0156-14.422 9.6797-14.422 9.6797-3.168 2.125-4.5977 6.0547-3.5273 9.7148 1.0664 3.6602 4.3789 6.2109 8.1914 6.3008 20.766 0.49609 25.875 9.0117 30.383 16.52l0.79297 1.3164c9.4375 15.473 10.383 32.387 11.387 50.285 0.90625 16.215 1.8438 32.973 9.0508 49.758 16.332 38.039 59.211 44.406 90.043 45.895 10.562 0.50391 21.191 0.28906 31.465 0.085938 15.211-0.72266 30.453-0.23828 45.586 1.4531 3.5977 0.52734 7.1602 1.2695 10.668 2.2148l-2.0195 8.4766h-1.4883c-4.6406 0.007812-9.0859 1.8516-12.367 5.1328s-5.1289 7.7305-5.1328 12.367v43.75c0.003906 4.6406 1.8516 9.0898 5.1328 12.371s7.7266 5.125 12.367 5.1289v21.785l-3.3633 0.97266v0.003907c-4.3281 1.2695-7.9805 4.1992-10.16 8.1484-2.1797 3.9531-2.7109 8.6016-1.4805 12.945l5.6328 19.809v-0.003906c1.3203 4.6484 6.1602 7.3477 10.809 6.0234 4.6484-1.3203 7.3438-6.1602 6.0234-10.809zm25.586-194.6c18.047 0.92969 36.113-1.3906 53.34-6.8477l-17.648 30.316h0.003906c-0.86328 1.4805-1.2734 3.1836-1.1758 4.8945 0 0 1.1758 20.875 2.1641 38.379-1.4805-1.168-3.0508-2.3906-4.7188-3.6719-1.7344-1.3281-3.1641-2.4219-4.0273-3.1484h-0.003906c-11.039-9.4023-23.441-17.086-36.777-22.785zm-33.047 74.477h17.5l0.011719 43.75-17.512-0.003906z"/>
  <path d="m395.56 452.44 17.5-17.5c3.4141-3.418 3.4141-8.957 0-12.371-3.418-3.418-8.957-3.418-12.375 0l-17.5 17.5c-1.6406 1.6406-2.5625 3.8633-2.5625 6.1836 0 2.3242 0.92188 4.5469 2.5625 6.1914 1.6406 1.6406 3.8672 2.5625 6.1875 2.5625 2.3203-0.003906 4.5469-0.92578 6.1875-2.5664z"/>
  <path d="m389.84 484.7 17.5 8.75c2.0781 1.043 4.4844 1.2188 6.6914 0.48828 2.207-0.73047 4.0312-2.3125 5.0703-4.3906 1.0391-2.082 1.2109-4.4883 0.47266-6.6914-0.73828-2.207-2.3242-4.0273-4.4062-5.0625l-17.5-8.75c-2.0781-1.043-4.4844-1.2188-6.6914-0.48828-2.207 0.73438-4.0312 2.3125-5.0703 4.3945-1.0391 2.0781-1.2109 4.4844-0.47266 6.6914 0.73828 2.2031 2.3242 4.0234 4.4062 5.0586z"/>
  <path d="m437.5 459.38c0-4.832-3.918-8.75-8.75-8.75h-17.5c-2.3281-0.011719-4.5664 0.90625-6.2188 2.5469s-2.5781 3.875-2.5781 6.2031 0.92578 4.5625 2.5781 6.2031c1.6523 1.6445 3.8906 2.5586 6.2188 2.5469h17.5c4.832 0 8.75-3.918 8.75-8.75z"/>
 </g>
</svg>
