<?xml version="1.0" encoding="UTF-8"?>
<svg width="700pt" height="700pt" version="1.1" viewBox="0 0 700 700" xmlns="http://www.w3.org/2000/svg" xmlns:xlink="http://www.w3.org/1999/xlink">
 <defs>
  <symbol id="w" overflow="visible">
   <path d="m1.375-0.078125c-0.0625 0.03125-0.13672 0.058594-0.21875 0.078125-0.074219 0.019531-0.15234 0.03125-0.23438 0.03125-0.25 0-0.44922-0.066406-0.59375-0.20312-0.14844-0.14453-0.21875-0.33594-0.21875-0.57812 0-0.23828 0.070313-0.42578 0.21875-0.5625 0.14453-0.14453 0.34375-0.21875 0.59375-0.21875 0.082031 0 0.16016 0.011719 0.23438 0.03125 0.082031 0.023438 0.15625 0.046875 0.21875 0.078125v0.3125c-0.0625-0.050781-0.13281-0.085937-0.20312-0.10938-0.074219-0.019531-0.14844-0.03125-0.21875-0.03125-0.14844 0-0.26172 0.046875-0.34375 0.14062-0.074219 0.085937-0.10938 0.20312-0.10938 0.35938s0.035156 0.28125 0.10938 0.375c0.082031 0.085938 0.19531 0.125 0.34375 0.125 0.070313 0 0.14453-0.007812 0.21875-0.03125 0.070313-0.019531 0.14062-0.054688 0.20312-0.10938z"/>
  </symbol>
  <symbol id="d" overflow="visible">
   <path d="m1.0156-0.82812c-0.03125-0.007813-0.0625-0.015625-0.09375-0.015625-0.03125-0.007812-0.0625-0.015625-0.09375-0.015625-0.09375 0-0.16797 0.03125-0.21875 0.09375-0.054687 0.054687-0.078125 0.13672-0.078125 0.25v0.51562h-0.35938v-1.125h0.35938v0.1875c0.050781-0.070312 0.10156-0.125 0.15625-0.15625 0.0625-0.039062 0.13281-0.0625 0.21875-0.0625h0.03125c0.019531 0 0.046875 0.007812 0.078125 0.015625z"/>
  </symbol>
  <symbol id="a" overflow="visible">
   <path d="m1.2969-0.5625v0.09375h-0.84375c0.007813 0.085938 0.039063 0.15234 0.09375 0.20312 0.050781 0.042969 0.125 0.0625 0.21875 0.0625 0.070313 0 0.14844-0.007813 0.23438-0.03125 0.082031-0.03125 0.16406-0.066406 0.25-0.10938v0.28125c-0.085938 0.03125-0.17188 0.054688-0.26562 0.0625-0.085937 0.019531-0.16797 0.03125-0.25 0.03125-0.21094 0-0.37109-0.050781-0.48438-0.15625-0.10547-0.10156-0.15625-0.25-0.15625-0.4375s0.050781-0.33203 0.15625-0.4375c0.11328-0.10156 0.26953-0.15625 0.46875-0.15625 0.17578 0 0.31641 0.058594 0.42188 0.17188 0.10156 0.10547 0.15625 0.24609 0.15625 0.42188zm-0.375-0.125c0-0.070312-0.023437-0.12891-0.0625-0.17188-0.03125-0.039063-0.078125-0.0625-0.14062-0.0625-0.074219 0-0.13672 0.023437-0.1875 0.0625-0.042969 0.042969-0.070312 0.10156-0.078125 0.17188z"/>
  </symbol>
  <symbol id="j" overflow="visible">
   <path d="m0.67188-0.5c-0.074219 0-0.13281 0.011719-0.17188 0.03125-0.03125 0.023438-0.046875 0.058594-0.046875 0.10938 0 0.054687 0.015625 0.09375 0.046875 0.125 0.03125 0.023437 0.070312 0.03125 0.125 0.03125 0.070312 0 0.12891-0.023437 0.17188-0.078125 0.039063-0.050781 0.0625-0.11328 0.0625-0.1875v-0.03125zm0.5625-0.14062v0.64062h-0.375v-0.17188c-0.042969 0.074219-0.09375 0.125-0.15625 0.15625s-0.13672 0.046875-0.21875 0.046875c-0.11719 0-0.21094-0.03125-0.28125-0.09375-0.074219-0.070312-0.10938-0.16406-0.10938-0.28125 0-0.125 0.039062-0.21875 0.125-0.28125 0.09375-0.0625 0.23828-0.09375 0.4375-0.09375h0.20312v-0.03125c0-0.050781-0.023437-0.09375-0.0625-0.125-0.042969-0.03125-0.10938-0.046875-0.20312-0.046875-0.085938 0-0.16406 0.011719-0.23438 0.03125-0.0625 0.011719-0.12109 0.03125-0.17188 0.0625v-0.26562c0.070312-0.019531 0.14453-0.035156 0.21875-0.046875 0.082031-0.007813 0.16406-0.015625 0.25-0.015625 0.19531 0 0.34375 0.042969 0.4375 0.125 0.09375 0.074219 0.14062 0.20312 0.14062 0.39062z"/>
  </symbol>
  <symbol id="c" overflow="visible">
   <path d="m0.5625-1.4531v0.32812h0.375v0.25h-0.375v0.48438c0 0.054687 0.007812 0.089844 0.03125 0.10938 0.019531 0.011719 0.0625 0.015625 0.125 0.015625h0.1875v0.26562h-0.3125c-0.13672 0-0.23438-0.023438-0.29688-0.078125-0.0625-0.0625-0.09375-0.16406-0.09375-0.3125v-0.48438h-0.17188v-0.25h0.17188v-0.32812z"/>
  </symbol>
  <symbol id="i" overflow="visible">
   <path d="m0.9375-0.96875v-0.59375h0.35938v1.5625h-0.35938v-0.15625c-0.054688 0.0625-0.10938 0.10938-0.17188 0.14062-0.054687 0.03125-0.12109 0.046875-0.20312 0.046875-0.13672 0-0.25-0.050781-0.34375-0.15625-0.085938-0.11328-0.125-0.25781-0.125-0.4375 0-0.17578 0.039062-0.31641 0.125-0.42188 0.09375-0.11328 0.20703-0.17188 0.34375-0.17188 0.082031 0 0.14844 0.015625 0.20312 0.046875 0.0625 0.03125 0.11719 0.078125 0.17188 0.14062zm-0.23438 0.73438c0.070313 0 0.12891-0.023437 0.17188-0.078125 0.039062-0.0625 0.0625-0.14453 0.0625-0.25 0-0.10156-0.023438-0.17969-0.0625-0.23438-0.042969-0.0625-0.10156-0.09375-0.17188-0.09375-0.074219 0-0.13281 0.03125-0.17188 0.09375-0.042969 0.054687-0.0625 0.13281-0.0625 0.23438 0 0.10547 0.019531 0.1875 0.0625 0.25 0.039062 0.054688 0.097656 0.078125 0.17188 0.078125z"/>
  </symbol>
  <symbol id="h" overflow="visible">
   <path d="m0.78125-0.23438c0.070312 0 0.12891-0.023437 0.17188-0.078125 0.039063-0.0625 0.0625-0.14453 0.0625-0.25 0-0.10156-0.023437-0.17969-0.0625-0.23438-0.042969-0.0625-0.10156-0.09375-0.17188-0.09375-0.085938 0-0.14844 0.03125-0.1875 0.09375-0.042969 0.054687-0.0625 0.13281-0.0625 0.23438 0 0.10547 0.019531 0.1875 0.0625 0.25 0.039062 0.054688 0.10156 0.078125 0.1875 0.078125zm-0.25-0.73438c0.050781-0.0625 0.10938-0.10938 0.17188-0.14062s0.12891-0.046875 0.20312-0.046875c0.13281 0 0.25 0.058594 0.34375 0.17188 0.09375 0.10547 0.14062 0.24609 0.14062 0.42188 0 0.17969-0.046875 0.32422-0.14062 0.4375-0.09375 0.10547-0.21094 0.15625-0.34375 0.15625-0.074219 0-0.14062-0.015625-0.20312-0.046875s-0.12109-0.078125-0.17188-0.14062v0.15625h-0.35938v-1.5625h0.35938z"/>
  </symbol>
  <symbol id="g" overflow="visible">
   <path d="m0.03125-1.125h0.35938l0.29688 0.76562 0.26562-0.76562h0.35938l-0.48438 1.2344c-0.042969 0.125-0.09375 0.20703-0.15625 0.25-0.0625 0.050781-0.14844 0.078125-0.25 0.078125h-0.21875v-0.23438h0.10938c0.0625 0 0.10938-0.011719 0.14062-0.03125 0.03125-0.011719 0.050781-0.042969 0.0625-0.09375l0.015625-0.03125z"/>
  </symbol>
  <symbol id="f" overflow="visible">
   <path d="m0.57812-1.2031v0.90625h0.14062c0.15625 0 0.27344-0.035156 0.35938-0.10938 0.082031-0.082031 0.125-0.19531 0.125-0.34375 0-0.15625-0.042969-0.26953-0.125-0.34375-0.085937-0.070312-0.20312-0.10938-0.35938-0.10938zm-0.39062-0.29688h0.40625c0.22656 0 0.39844 0.015625 0.51562 0.046875 0.11328 0.03125 0.20703 0.085937 0.28125 0.15625 0.070313 0.074219 0.125 0.15625 0.15625 0.25 0.039063 0.085937 0.0625 0.18359 0.0625 0.29688 0 0.11719-0.023437 0.21875-0.0625 0.3125-0.03125 0.085938-0.085937 0.15625-0.15625 0.21875-0.074219 0.085938-0.16797 0.14062-0.28125 0.17188-0.11719 0.03125-0.28906 0.046875-0.51562 0.046875h-0.40625z"/>
  </symbol>
  <symbol id="b" overflow="visible">
   <path d="m0.70312-0.89062c-0.074219 0-0.13281 0.03125-0.17188 0.09375-0.042969 0.054687-0.0625 0.13281-0.0625 0.23438 0 0.10547 0.019531 0.1875 0.0625 0.25 0.039062 0.054688 0.097656 0.078125 0.17188 0.078125 0.082031 0 0.14453-0.023437 0.1875-0.078125 0.039063-0.0625 0.0625-0.14453 0.0625-0.25 0-0.10156-0.023437-0.17969-0.0625-0.23438-0.042969-0.0625-0.10547-0.09375-0.1875-0.09375zm0-0.26562c0.19531 0 0.34766 0.054688 0.45312 0.15625 0.11328 0.10547 0.17188 0.25 0.17188 0.4375s-0.058594 0.33594-0.17188 0.4375c-0.10547 0.10547-0.25781 0.15625-0.45312 0.15625-0.1875 0-0.33984-0.050781-0.45312-0.15625-0.10547-0.10156-0.15625-0.25-0.15625-0.4375s0.050781-0.33203 0.15625-0.4375c0.11328-0.10156 0.26562-0.15625 0.45312-0.15625z"/>
  </symbol>
  <symbol id="e" overflow="visible">
   <path d="m1.3125-0.6875v0.6875h-0.375v-0.53125-0.1875c0-0.039062-0.007812-0.070312-0.015625-0.09375-0.023437-0.019531-0.042969-0.035156-0.0625-0.046875-0.023437-0.019531-0.046875-0.03125-0.078125-0.03125-0.085938 0-0.14844 0.03125-0.1875 0.09375-0.042969 0.0625-0.0625 0.14062-0.0625 0.23438v0.5625h-0.35938v-1.125h0.35938v0.15625c0.050781-0.0625 0.10938-0.10938 0.17188-0.14062s0.12891-0.046875 0.20312-0.046875c0.13281 0 0.23438 0.042969 0.29688 0.125 0.070313 0.074219 0.10938 0.1875 0.10938 0.34375z"/>
  </symbol>
  <symbol id="v" overflow="visible">
   <path d="m0.9375-0.1875c-0.054688 0.0625-0.10938 0.10938-0.17188 0.14062-0.054687 0.03125-0.12109 0.046875-0.20312 0.046875-0.13672 0-0.25-0.050781-0.34375-0.15625-0.085938-0.11328-0.125-0.25391-0.125-0.42188 0-0.16406 0.039062-0.30078 0.125-0.40625 0.09375-0.11328 0.20703-0.17188 0.34375-0.17188 0.082031 0 0.14844 0.015625 0.20312 0.046875 0.0625 0.03125 0.11719 0.085937 0.17188 0.15625v-0.17188h0.35938v1.0156c0 0.17578-0.058594 0.3125-0.17188 0.40625-0.11719 0.09375-0.27734 0.14062-0.48438 0.14062-0.074219 0-0.14844-0.007812-0.21875-0.015625-0.0625-0.011719-0.125-0.027344-0.1875-0.046875v-0.28125c0.0625 0.039062 0.11719 0.066406 0.17188 0.078125 0.0625 0.019531 0.125 0.03125 0.1875 0.03125 0.125 0 0.21094-0.027344 0.26562-0.078125 0.050781-0.054688 0.078125-0.12891 0.078125-0.23438zm-0.23438-0.70312c-0.074219 0-0.13281 0.027344-0.17188 0.078125-0.042969 0.054688-0.0625 0.13281-0.0625 0.23438 0 0.10547 0.019531 0.18359 0.0625 0.23438 0.039062 0.054688 0.097656 0.078125 0.17188 0.078125 0.070313 0 0.12891-0.023437 0.17188-0.078125 0.039062-0.050781 0.0625-0.12891 0.0625-0.23438 0-0.10156-0.023438-0.17969-0.0625-0.23438-0.042969-0.050781-0.10156-0.078125-0.17188-0.078125z"/>
  </symbol>
  <symbol id="u" overflow="visible">
   <path d="m0.1875-1.5h0.39062v1.5h-0.39062z"/>
  </symbol>
  <symbol id="t" overflow="visible">
   <path d="m0.17188-1.5625h0.35938v0.84375l0.42188-0.40625h0.42188l-0.5625 0.51562 0.59375 0.60938h-0.4375l-0.4375-0.46875v0.46875h-0.35938z"/>
  </symbol>
  <symbol id="s" overflow="visible">
   <path d="m1.2344-1.4531v0.3125c-0.085937-0.03125-0.16797-0.054687-0.25-0.078125-0.074219-0.019531-0.14844-0.03125-0.21875-0.03125-0.09375 0-0.16406 0.015625-0.20312 0.046875-0.042969 0.023437-0.0625 0.058594-0.0625 0.10938 0 0.042969 0.015625 0.074219 0.046875 0.09375 0.03125 0.023438 0.082031 0.042969 0.15625 0.0625l0.17188 0.03125c0.16406 0.03125 0.28125 0.085938 0.34375 0.15625 0.070312 0.0625 0.10938 0.15625 0.10938 0.28125 0 0.16797-0.046875 0.29297-0.14062 0.375-0.09375 0.085938-0.24609 0.125-0.45312 0.125-0.09375 0-0.1875-0.011719-0.28125-0.03125s-0.19531-0.046875-0.29688-0.078125v-0.32812c0.10156 0.054688 0.19531 0.09375 0.28125 0.125 0.09375 0.023438 0.17969 0.03125 0.26562 0.03125 0.082031 0 0.14453-0.015625 0.1875-0.046875 0.039063-0.03125 0.0625-0.070313 0.0625-0.125 0-0.039063-0.015625-0.070313-0.046875-0.09375-0.023438-0.03125-0.078125-0.054687-0.17188-0.078125l-0.15625-0.03125c-0.14844-0.03125-0.25781-0.082031-0.32812-0.15625-0.074219-0.070312-0.10938-0.16406-0.10938-0.28125 0-0.15625 0.046875-0.26953 0.14062-0.34375 0.10156-0.082031 0.24219-0.125 0.42188-0.125 0.082031 0 0.16406 0.007812 0.25 0.015625 0.09375 0.011719 0.1875 0.03125 0.28125 0.0625z"/>
  </symbol>
  <symbol id="r" overflow="visible">
   <path d="m0.92188-1.5625v0.23438h-0.20312c-0.054688 0-0.089844 0.011719-0.10938 0.03125-0.023437 0.011719-0.03125 0.042969-0.03125 0.09375v0.078125h0.3125v0.25h-0.3125v0.875h-0.35938v-0.875h-0.17188v-0.25h0.17188v-0.078125c0-0.125 0.03125-0.21094 0.09375-0.26562 0.070312-0.0625 0.17969-0.09375 0.32812-0.09375z"/>
  </symbol>
  <symbol id="q" overflow="visible">
   <path d="m1.2188-0.9375c0.039062-0.070312 0.09375-0.125 0.15625-0.15625 0.0625-0.039062 0.13281-0.0625 0.21875-0.0625 0.125 0 0.21875 0.042969 0.28125 0.125 0.070312 0.074219 0.10938 0.1875 0.10938 0.34375v0.6875h-0.35938v-0.59375-0.015625-0.046875c0-0.082031-0.011719-0.14062-0.03125-0.17188-0.023438-0.039063-0.0625-0.0625-0.125-0.0625s-0.11719 0.03125-0.15625 0.09375c-0.03125 0.054687-0.046875 0.13672-0.046875 0.25v0.54688h-0.375v-0.59375c0-0.125-0.011719-0.20312-0.03125-0.23438-0.023437-0.039063-0.058594-0.0625-0.10938-0.0625-0.074219 0-0.13281 0.03125-0.17188 0.09375-0.03125 0.054687-0.046875 0.13281-0.046875 0.23438v0.5625h-0.35938v-1.125h0.35938v0.15625c0.039062-0.0625 0.085938-0.10938 0.14062-0.14062 0.0625-0.03125 0.12891-0.046875 0.20312-0.046875 0.082031 0 0.14844 0.023438 0.20312 0.0625 0.0625 0.03125 0.10938 0.085938 0.14062 0.15625z"/>
  </symbol>
  <symbol id="p" overflow="visible">
   <path d="m1.3125-0.6875v0.6875h-0.375v-0.53125-0.1875c0-0.039062-0.007812-0.070312-0.015625-0.09375-0.023437-0.019531-0.042969-0.035156-0.0625-0.046875-0.023437-0.019531-0.046875-0.03125-0.078125-0.03125-0.085938 0-0.14844 0.03125-0.1875 0.09375-0.042969 0.0625-0.0625 0.14062-0.0625 0.23438v0.5625h-0.35938v-1.5625h0.35938v0.59375c0.050781-0.0625 0.10938-0.10938 0.17188-0.14062s0.12891-0.046875 0.20312-0.046875c0.13281 0 0.23438 0.042969 0.29688 0.125 0.070313 0.074219 0.10938 0.1875 0.10938 0.34375z"/>
  </symbol>
  <symbol id="o" overflow="visible">
   <path d="m0.1875-1.5h0.4375l0.54688 1.0312v-1.0312h0.35938v1.5h-0.42188l-0.54688-1.0312v1.0312h-0.375z"/>
  </symbol>
  <symbol id="n" overflow="visible">
   <path d="m0.15625-0.4375v-0.6875h0.375v0.10938c0 0.0625-0.007812 0.14062-0.015625 0.23438v0.1875 0.1875c0.007813 0.042969 0.019531 0.074219 0.03125 0.09375 0.019531 0.023438 0.039063 0.039062 0.0625 0.046875 0.019531 0.011719 0.046875 0.015625 0.078125 0.015625 0.082031 0 0.14453-0.023438 0.1875-0.078125 0.039062-0.0625 0.0625-0.14453 0.0625-0.25v-0.54688h0.35938v1.125h-0.35938v-0.15625c-0.054688 0.0625-0.10938 0.10938-0.17188 0.14062s-0.13281 0.046875-0.20312 0.046875c-0.13672 0-0.24219-0.035156-0.3125-0.10938-0.0625-0.082031-0.09375-0.20312-0.09375-0.35938z"/>
  </symbol>
  <symbol id="m" overflow="visible">
   <path d="m0.1875-1.5h0.64062c0.19531 0 0.34375 0.042969 0.4375 0.125 0.10156 0.085938 0.15625 0.20312 0.15625 0.35938s-0.054687 0.28125-0.15625 0.375c-0.09375 0.085937-0.24219 0.125-0.4375 0.125h-0.25v0.51562h-0.39062zm0.39062 0.28125v0.42188h0.21875c0.070313 0 0.12891-0.015625 0.17188-0.046875 0.039062-0.039062 0.0625-0.097656 0.0625-0.17188 0-0.0625-0.023438-0.10938-0.0625-0.14062-0.042969-0.039062-0.10156-0.0625-0.17188-0.0625z"/>
  </symbol>
  <symbol id="l" overflow="visible">
   <path d="m0.17188-1.125h0.35938v1.1094c0 0.14453-0.039062 0.25391-0.10938 0.32812-0.074219 0.082031-0.17969 0.125-0.3125 0.125h-0.17188v-0.23438h0.0625c0.0625 0 0.10156-0.015625 0.125-0.046875 0.03125-0.03125 0.046875-0.089844 0.046875-0.17188zm0-0.4375h0.35938v0.29688h-0.35938z"/>
  </symbol>
  <symbol id="k" overflow="visible">
   <path d="m1.0781-1.0938v0.29688c-0.042969-0.03125-0.089844-0.050781-0.14062-0.0625-0.054688-0.019531-0.10547-0.03125-0.15625-0.03125-0.10547 0-0.18359 0.03125-0.23438 0.09375-0.054687 0.054687-0.078125 0.13281-0.078125 0.23438 0 0.10547 0.023438 0.1875 0.078125 0.25 0.050781 0.054688 0.12891 0.078125 0.23438 0.078125 0.0625 0 0.11328-0.003906 0.15625-0.015625 0.050781-0.019531 0.097656-0.046875 0.14062-0.078125v0.29688c-0.054687 0.023438-0.10938 0.035156-0.17188 0.046875-0.054688 0.0078125-0.10938 0.015625-0.17188 0.015625-0.19922 0-0.35547-0.050781-0.46875-0.15625-0.11719-0.10156-0.17188-0.25-0.17188-0.4375s0.054688-0.33203 0.17188-0.4375c0.11328-0.10156 0.26953-0.15625 0.46875-0.15625 0.0625 0 0.11719 0.007812 0.17188 0.015625 0.0625 0.011719 0.11719 0.027344 0.17188 0.046875z"/>
  </symbol>
 </defs>
 <g>
  <path d="m327.23 0h45.527v560h-45.527z" fill-rule="evenodd"/>
  <path d="m383.58 0.57031h185.84l50.91 50.91v1.7539l-50.91 50.91h-185.84z" fill-rule="evenodd"/>
  <path d="m316.42 85.605h-185.84l-50.91 50.91v1.7617l50.91 50.906h185.84z" fill-rule="evenodd"/>
  <path d="m383.58 170.64h185.84l50.91 50.914v1.7539l-50.91 50.91h-185.84z" fill-rule="evenodd"/>
 </g>
</svg>
