<?xml version="1.0" standalone="no"?>
<!DOCTYPE svg PUBLIC "-//W3C//DTD SVG 20010904//EN"
 "http://www.w3.org/TR/2001/REC-SVG-20010904/DTD/svg10.dtd">
<svg version="1.0" xmlns="http://www.w3.org/2000/svg"
 width="500.000000pt" height="500.000000pt" viewBox="0 0 500.000000 500.000000"
 preserveAspectRatio="xMidYMid meet">
<metadata>
Created by potrace 1.14, written by Peter Selinger 2001-2017
</metadata>
<g transform="translate(0.000000,500.000000) scale(0.100000,-0.100000)"
fill="#000000" stroke="none">
<path d="M375 4980 c-86 -22 -149 -57 -206 -113 -87 -83 -119 -135 -148 -238
-21 -73 -21 -81 -20 -2124 0 -1662 3 -2062 14 -2111 29 -134 119 -254 245
-328 119 -70 -16 -66 2247 -65 2146 1 2100 0 2193 44 71 33 90 47 147 103 66
65 105 128 131 211 16 52 17 192 17 2141 0 2272 4 2127 -56 2235 -41 72 -134
166 -203 203 -118 64 7 60 -2241 61 -1964 0 -2053 -1 -2120 -19z"/>
</g>
</svg>
